<svg version="1.1" xmlns="http://www.w3.org/2000/svg" xmlns:xlink="http://www.w3.org/1999/xlink" width="48px" height="48px" viewBox="0,0,256,256"><g fill="none" fill-rule="nonzero" stroke="none" stroke-width="1" stroke-linecap="butt" stroke-linejoin="miter" stroke-miterlimit="10" stroke-dasharray="" stroke-dashoffset="0" font-family="none" font-weight="none" font-size="none" text-anchor="none" style="mix-blend-mode: normal"><g transform="scale(5.33333,5.33333)"><path d="M24,39l-5,-6v-6h10v6z" fill="#ff9c09"></path><path d="M35,21c0,1.106 -0.896,2 -2,2c-1.106,0 -2,-0.894 -2,-2c0,-1.105 0.894,-2 2,-2c1.104,0 2,0.895 2,2M17,21c0,-1.105 -0.896,-2 -2,-2c-1.106,0 -2,0.895 -2,2c0,1.106 0.894,2 2,2c1.104,0 2,-0.894 2,-2" fill="#ffa726"></path><path d="M33,15c0,-7.635 -18,-4.971 -18,0v7c0,4.971 4.028,9 9,9c4.971,0 9,-4.029 9,-9z" fill="#ffb74d"></path><path d="M24,6c-6.075,0 -10,4.926 -10,11v2.285l2,1.715v-5l12,-4l4,4v5l2,-1.742v-2.258c0,-4.025 -1.038,-8.016 -6,-9l-1,-2z" fill="#424242"></path><path d="M27,21c0,-0.551 0.448,-1 1,-1c0.552,0 1,0.449 1,1c0,0.551 -0.448,1 -1,1c-0.552,0 -1,-0.449 -1,-1M19,21c0,0.551 0.448,1 1,1c0.552,0 1,-0.449 1,-1c0,-0.551 -0.448,-1 -1,-1c-0.552,0 -1,0.449 -1,1" fill="#784719"></path><path d="M24,45l-5,-12l5,1l5,-1z" fill="#ffffff"></path><path d="M23,37l-0.667,4.465l1.667,4l1.667,-4l-0.667,-4.465l1,-1l-2,-2l-2,2z" fill="#d32f2f"></path><path d="M29,33v0l-5,12l-5,-12c0,0 -11,1.986 -11,13h32c0,-10.975 -11,-13 -11,-13" fill="#3f51b5"></path></g></g></svg>
