<svg version="1.1" xmlns="http://www.w3.org/2000/svg" xmlns:xlink="http://www.w3.org/1999/xlink" width="48px" height="48px" viewBox="0,0,256,256"><g fill="none" fill-rule="nonzero" stroke="none" stroke-width="1" stroke-linecap="butt" stroke-linejoin="miter" stroke-miterlimit="10" stroke-dasharray="" stroke-dashoffset="0" font-family="none" font-weight="none" font-size="none" text-anchor="none" style="mix-blend-mode: normal"><g transform="scale(5.33333,5.33333)"><path d="M17,30c0,2.208 -1.791,4 -4,4c-2.209,0 -4,-1.792 -4,-4c0,-2.209 1.791,-4 4,-4c2.209,0 4,1.791 4,4" fill="#fba425"></path><path d="M43,30c0,2.208 -1.791,4 -4,4c-2.209,0 -4,-1.792 -4,-4c0,-2.209 1.791,-4 4,-4c2.209,0 4,1.791 4,4" fill="#fba425"></path><path d="M39,19.443c0,-11.96 -26,-11.279 -26,0v14.279c0,7.787 5.821,11.278 13,11.278c7.179,0 13,-3.491 13,-11.279z" fill="#ffb74d"></path><path d="M33,27.5c0,0.829 -0.672,1.5 -1.5,1.5c-0.829,0 -1.5,-0.67 -1.5,-1.5c0,-0.829 0.67,-1.5 1.5,-1.5c0.828,0 1.5,0.671 1.5,1.5" fill="#784719"></path><path d="M22,27.5c0,-0.829 -0.672,-1.5 -1.5,-1.5c-0.829,0 -1.5,0.671 -1.5,1.5c0,0.829 0.67,1.5 1.5,1.5c0.828,0 1.5,-0.67 1.5,-1.5" fill="#784719"></path><path d="M39.085,32.08c-2.818,4.269 -7.331,6.68 -13.085,5.92v0.011c-5.749,0.756 -10.268,-1.666 -13.085,-5.932c0,0 -0.915,2.714 -0.915,5.877c0,5.877 4,10.044 14,10.044c10,0 14,-4.167 14,-10.044c0,-3.162 -0.915,-5.876 -0.915,-5.876z" fill="#78909c"></path><path d="M34,36c-2,-3 -8,-3 -8,-3c0,0 -6,0 -8,3c-2,3 -3,9 -3,9h11h11c0,0 -1,-6 -3,-9z" fill="#78909c"></path><path d="M21,38h10c0,0 -2,3 -5,3c-3,0 -5,-3 -5,-3z" fill="#fba425"></path><path d="M28,9h-3c-9.228,0 -15,1.48 -15,12v6.4l3,3.6v-9l20,-8l6,7v10l3,-3.6v-6.4c0,-10 -6,-12 -14,-12z" fill="#78909c"></path><path d="M37,6l-2,-4l-5,4l-4,-4l-4,4l-5,-4l-2,4l-6,-3l4,9c0.057,0 9,0 13,0c4,0 12.943,0 13,0l4,-9z" fill="#ffc107"></path><rect x="29" y="24" width="6" height="2" fill="#78909c"></rect><rect x="17" y="24" width="6" height="2" fill="#78909c"></rect></g></g></svg>
