<svg version="1.1" xmlns="http://www.w3.org/2000/svg" xmlns:xlink="http://www.w3.org/1999/xlink" width="48px" height="48px" viewBox="0,0,256,256"><g fill="none" fill-rule="nonzero" stroke="none" stroke-width="1" stroke-linecap="butt" stroke-linejoin="miter" stroke-miterlimit="10" stroke-dasharray="" stroke-dashoffset="0" font-family="none" font-weight="none" font-size="none" text-anchor="none" style="mix-blend-mode: normal"><g transform="scale(5.33333,5.33333)"><path d="M14,27c0,2.208 -1.791,4 -4,4c-2.209,0 -4,-1.792 -4,-4c0,-2.209 1.791,-4 4,-4c2.209,0 4,1.791 4,4M42,27c0,-2.209 -1.791,-4 -4,-4c-2.209,0 -4,1.791 -4,4c0,2.208 1.791,4 4,4c2.209,0 4,-1.792 4,-4" fill="#ffce86"></path><path d="M9,20c0,-12.725 30,-8.285 30,0v10c0,8.286 -6.716,15 -15,15c-8.284,0 -15,-6.714 -15,-15z" fill="#ffe0b2"></path><path d="M40.891,19.338c-0.474,-5.973 -2.561,-11.856 -9.891,-13.338l-2,-3h-5c-9.229,0 -17,7.481 -17,18v3.4l3,3.6v-6l21,-7l7,6v7l3,-3.6v-3.4c0,-0.564 -0.043,-1.117 -0.109,-1.662" fill="#ff5722"></path><path d="M33,28c0,1.106 -0.895,2 -2,2c-1.105,0 -2,-0.894 -2,-2c0,-1.105 0.895,-2 2,-2c1.105,0 2,0.895 2,2M19,28c0,-1.105 -0.896,-2 -2,-2c-1.106,0 -2,0.895 -2,2c0,1.106 0.894,2 2,2c1.104,0 2,-0.894 2,-2" fill="#784719"></path><path d="M19,37h10c0,0 -2,3 -5,3c-3,0 -5,-3 -5,-3z" fill="#ffab91"></path></g></g></svg>
