<svg xmlns="http://www.w3.org/2000/svg" width="1000px" height="1000px" viewBox="0 0 1000 1000">
    <path style="fill: gray" d="M997.25 495.63c-27.31,-43.25 -58.04,-83.08 -97.87,-118.36 -37.56,-33.01 -78.53,-60.32 -121.78,-81.94l-71.7 86.49 1.14 0.01c59.18,27.31 109.26,63.73 149.09,111.53 3.42,4.55 5.7,7.96 1.14,13.66 -66.01,78.52 -153.64,125.19 -260.62,146.81 61.46,-36.42 96.74,-86.49 96.74,-152.51 0,-29.59 -6.83,-55.76 -20.49,-79.66l-282.24 339.15c64.87,11.37 133.15,11.37 204.85,0 177.54,-26.18 311.83,-110.4 400.6,-253.79 2.28,-3.42 2.28,-7.97 1.14,-11.38l0 -0.01zm-248.1 -393.77l-119.5 144.53c-43.25,-9.1 -86.49,-13.65 -133.15,-14.79 -18.21,1.14 -38.69,2.28 -59.18,3.41 -11.38,1.14 -22.76,3.42 -33.01,4.55 -177.54,28.45 -312.97,112.67 -400.6,254.94 -2.28,3.41 -2.28,9.1 0,11.37 31.87,53.5 70.56,100.15 121.78,138.85 36.42,28.45 75.11,50.08 114.95,69.42l-47.8 56.91 58.04 48.93 556.52 -670.32 -58.04 -47.8 -0.01 0zm-317.52 286.8c23.9,1.13 44.38,18.2 46.66,39.83l-37.56 43.25c-2.27,1.13 -5.69,1.13 -7.96,1.13 -27.31,0 -46.66,-18.2 -46.66,-40.97 -1.14,-23.9 20.48,-43.24 45.52,-43.24zm-260.62 149.09c-9.11,-9.11 -17.07,-19.35 -27.31,-28.45 -5.7,-6.83 -4.55,-10.25 0,-17.08 50.07,-58.04 113.8,-100.14 191.19,-126.32 21.62,-7.97 44.39,-13.66 67.15,-18.21 -60.32,36.42 -95.6,86.49 -94.46,153.64 0,36.42 10.24,68.29 30.73,95.6l-26.18 30.73c-52.35,-21.62 -99.01,-50.08 -141.12,-89.91l0 0z"/>
</svg>
