<svg xmlns="http://www.w3.org/2000/svg" width="1000" height="1000" viewBox="0 0 1000 1000">
    <path style="fill: gray" d="M496.49 230.96c157.37,2.28 291.93,47.89 403.68,145.97 39.92,34.21 70.71,74.12 98.08,117.45 1.13,3.42 1.13,9.12 -1.14,11.4 -88.95,143.69 -223.51,229.21 -401.4,255.44 -175.62,26.23 -334.13,-13.68 -470.97,-117.45 -51.32,-37.63 -91.23,-85.53 -122.02,-137.98 -2.29,-3.42 -2.29,-9.13 0,-11.4 87.81,-143.69 223.5,-226.93 400.26,-256.58 11.4,-1.14 22.81,-3.42 34.21,-3.42 20.53,-2.29 41.06,-2.29 59.3,-3.43l0 0zm100.35 421.93c107.19,-20.52 195,-68.42 261.14,-145.96 4.55,-6.85 2.28,-10.27 -1.14,-14.83 -39.92,-47.89 -90.09,-84.39 -149.39,-110.61 -34.21,-15.97 -71.84,-27.37 -114.03,-35.35 65,37.63 100.35,87.81 100.35,153.95 -1.14,67.28 -35.35,116.32 -96.93,152.81l0 -0.01zm-193.86 0c-61.58,-36.49 -95.79,-85.52 -96.93,-152.81 0,-66.13 35.35,-116.31 95.79,-153.94 -22.81,5.7 -45.61,11.4 -67.28,18.24 -77.55,26.23 -141.4,68.42 -191.58,127.72 -4.56,5.7 -5.7,10.26 0,15.96 10.26,9.13 18.24,20.53 27.37,29.65 63.86,60.45 142.55,98.08 232.63,115.18zm29.65 -180.17c25.08,-1.14 45.61,-19.39 45.61,-42.2 0,-22.8 -21.67,-42.19 -46.76,-42.19 -25.09,0 -46.75,19.39 -45.61,42.19 0,23.95 20.53,42.2 46.76,42.2z"/>
</svg>
