<svg version="1.1" xmlns="http://www.w3.org/2000/svg" xmlns:xlink="http://www.w3.org/1999/xlink" width="48px" height="48px" viewBox="0,0,256,256"><defs><radialGradient cx="28.68367" cy="15.19735" r="4.10607" gradientUnits="userSpaceOnUse" id="color-1"><stop offset="0" stop-color="#d38047" stop-opacity="0.30196"></stop><stop offset="0.265" stop-color="#e99054" stop-opacity="0.221"></stop><stop offset="0.679" stop-color="#f99a5a" stop-opacity="0.096"></stop><stop offset="0.999" stop-color="#ff9d5c" stop-opacity="0"></stop></radialGradient><radialGradient cx="33.8442" cy="30.25438" r="6.08512" gradientUnits="userSpaceOnUse" id="color-2"><stop offset="0" stop-color="#b3632d"></stop><stop offset="1" stop-color="#b3632d" stop-opacity="0"></stop></radialGradient><radialGradient cx="24.167" cy="15.2" r="30.916" gradientUnits="userSpaceOnUse" id="color-3"><stop offset="0" stop-color="#b3632d"></stop><stop offset="0.243" stop-color="#af612c"></stop><stop offset="0.488" stop-color="#a35928"></stop><stop offset="0.736" stop-color="#8f4d21"></stop><stop offset="0.983" stop-color="#723b18"></stop><stop offset="1" stop-color="#703a17"></stop></radialGradient><radialGradient cx="19.31594" cy="15.19578" r="4.10607" gradientUnits="userSpaceOnUse" id="color-4"><stop offset="0" stop-color="#d38047" stop-opacity="0.30196"></stop><stop offset="0.265" stop-color="#e99054" stop-opacity="0.221"></stop><stop offset="0.679" stop-color="#f99a5a" stop-opacity="0.096"></stop><stop offset="0.999" stop-color="#ff9d5c" stop-opacity="0"></stop></radialGradient><radialGradient cx="14.15538" cy="30.25336" r="6.08512" gradientUnits="userSpaceOnUse" id="color-5"><stop offset="0" stop-color="#b3632d"></stop><stop offset="1" stop-color="#b3632d" stop-opacity="0"></stop></radialGradient><radialGradient cx="23.968" cy="20.699" r="21.035" gradientUnits="userSpaceOnUse" id="color-6"><stop offset="0.091" stop-color="#cc9e6a" stop-opacity="0"></stop><stop offset="0.769" stop-color="#cc9e6a"></stop></radialGradient><radialGradient cx="23.99822" cy="33.00607" r="5.24524" gradientUnits="userSpaceOnUse" id="color-7"><stop offset="0" stop-color="#e6caa1" stop-opacity="0.3"></stop><stop offset="1" stop-color="#e6caa1" stop-opacity="0"></stop></radialGradient><radialGradient cx="24.035" cy="38.41" r="5.892" gradientUnits="userSpaceOnUse" id="color-8"><stop offset="0" stop-color="#474241"></stop><stop offset="0.405" stop-color="#413c3b"></stop><stop offset="0.948" stop-color="#302d2c"></stop><stop offset="1" stop-color="#2e2b2a"></stop></radialGradient><radialGradient cx="25.25" cy="35.75" r="0.75" gradientUnits="userSpaceOnUse" id="color-9"><stop offset="0" stop-color="#0f0f0f"></stop><stop offset="0.91" stop-color="#111111" stop-opacity="0.09"></stop><stop offset="1" stop-color="#121212" stop-opacity="0"></stop></radialGradient><radialGradient cx="22.75" cy="35.75" r="0.75" gradientUnits="userSpaceOnUse" id="color-10"><stop offset="0" stop-color="#0f0f0f"></stop><stop offset="0.91" stop-color="#111111" stop-opacity="0.09"></stop><stop offset="1" stop-color="#121212" stop-opacity="0"></stop></radialGradient><radialGradient cx="23.911" cy="35.228" r="6.272" gradientUnits="userSpaceOnUse" id="color-11"><stop offset="0" stop-color="#2e2b2a"></stop><stop offset="0.739" stop-color="#2e2b2a"></stop><stop offset="0.843" stop-color="#322f2e"></stop><stop offset="0.95" stop-color="#3e3a39"></stop><stop offset="1" stop-color="#474241"></stop></radialGradient><radialGradient cx="31.01266" cy="24.26448" r="3.19023" gradientUnits="userSpaceOnUse" id="color-12"><stop offset="0.139" stop-color="#783d16"></stop><stop offset="1" stop-color="#783d16" stop-opacity="0"></stop></radialGradient><radialGradient cx="31" cy="24.42969" r="1.768" gradientUnits="userSpaceOnUse" id="color-13"><stop offset="0.318" stop-color="#000000"></stop><stop offset="0.329" stop-color="#040201"></stop><stop offset="0.339" stop-color="#100603"></stop><stop offset="0.35" stop-color="#250e06"></stop><stop offset="0.36" stop-color="#41190b"></stop><stop offset="0.369" stop-color="#5c2410"></stop><stop offset="0.537" stop-color="#54210f"></stop><stop offset="0.801" stop-color="#3d180b"></stop><stop offset="1" stop-color="#281007"></stop></radialGradient><radialGradient cx="16.98734" cy="24.26448" r="3.19023" gradientUnits="userSpaceOnUse" id="color-14"><stop offset="0.139" stop-color="#783d16"></stop><stop offset="1" stop-color="#783d16" stop-opacity="0"></stop></radialGradient><radialGradient cx="17" cy="24.42969" r="1.768" gradientUnits="userSpaceOnUse" id="color-15"><stop offset="0.318" stop-color="#000000"></stop><stop offset="0.329" stop-color="#040201"></stop><stop offset="0.339" stop-color="#100603"></stop><stop offset="0.35" stop-color="#250e06"></stop><stop offset="0.36" stop-color="#41190b"></stop><stop offset="0.369" stop-color="#5c2410"></stop><stop offset="0.537" stop-color="#54210f"></stop><stop offset="0.801" stop-color="#3d180b"></stop><stop offset="1" stop-color="#281007"></stop></radialGradient></defs><g fill="none" fill-rule="nonzero" stroke="none" stroke-width="1" stroke-linecap="butt" stroke-linejoin="miter" stroke-miterlimit="10" stroke-dasharray="" stroke-dashoffset="0" font-family="none" font-weight="none" font-size="none" text-anchor="none" style="mix-blend-mode: normal"><g transform="scale(5.33333,5.33333)"><path d="M24.891,16.826c-1.389,-3.242 -0.826,-6.595 1.258,-7.488c2.084,-0.893 4.9,1.011 6.29,4.253c1.389,3.242 0.826,6.595 -1.258,7.488c-2.085,0.893 -4.901,-1.011 -6.29,-4.253z" fill="url(#color-1)"></path><path d="M29.16,26.387c2.617,-3.156 6.835,-3.974 9.422,-1.829c2.587,2.145 2.563,6.443 -0.054,9.598c-2.617,3.156 -6.835,3.974 -9.422,1.829c-2.587,-2.145 -2.563,-6.443 0.054,-9.598z" fill="url(#color-2)"></path><path d="M10.381,16.287c0.668,-3.276 7.356,-8.287 13.619,-8.287c6.263,0 12.951,5.011 13.619,8.287c1.075,5.27 3.881,7.276 3.881,13.582c0,7.283 -7.622,7.531 -9.242,8.881c-1.565,1.304 -3.708,4.25 -8.258,4.25c-4.55,0 -6.693,-2.946 -8.258,-4.25c-1.62,-1.35 -9.242,-1.598 -9.242,-8.881c0,-6.305 2.806,-8.311 3.881,-13.582z" fill="url(#color-3)"></path><path d="M23.109,16.826c1.389,-3.242 0.826,-6.595 -1.258,-7.488c-2.084,-0.893 -4.9,1.011 -6.29,4.253c-1.39,3.242 -0.826,6.595 1.258,7.488c2.085,0.893 4.901,-1.011 6.29,-4.253z" fill="url(#color-4)"></path><path d="M18.84,26.387c-2.617,-3.156 -6.835,-3.974 -9.422,-1.829c-2.587,2.145 -2.564,6.442 0.053,9.598c2.617,3.156 6.835,3.974 9.422,1.829c2.587,-2.145 2.564,-6.443 -0.053,-9.598z" fill="url(#color-5)"></path><path d="M17.32,11.627c1.076,-1.673 -0.588,-3.064 -1.415,-3.891c-0.827,-0.827 -2.358,-1.736 -4.746,-1.736c-4.481,0 -5.159,4.483 -5.159,5.245c0,3.772 3.093,6.839 4.499,7.004c1.407,0.166 6.29,-5.796 6.821,-6.622z" fill="#ad5f2a"></path><path d="M17.29,11.641c1.068,-1.661 -0.583,-3.042 -1.405,-3.863c-0.821,-0.821 -2.341,-1.723 -4.712,-1.723c-4.449,0 -5.121,4.451 -5.121,5.207c0,3.745 3.07,6.789 4.467,6.953c1.397,0.164 6.245,-5.755 6.771,-6.574z" fill="#ac5e2a"></path><path d="M17.261,11.655c1.06,-1.649 -0.579,-3.02 -1.395,-3.835c-0.816,-0.815 -2.324,-1.71 -4.678,-1.71c-4.416,0 -5.084,4.418 -5.084,5.169c0,3.717 3.048,6.74 4.434,6.903c1.386,0.163 6.2,-5.714 6.723,-6.527z" fill="#ab5e2a"></path><path d="M17.231,11.669c1.052,-1.637 -0.575,-2.997 -1.384,-3.807c-0.809,-0.81 -2.307,-1.698 -4.643,-1.698c-4.384,0 -5.046,4.386 -5.046,5.131c0,3.69 3.025,6.69 4.401,6.852c1.376,0.162 6.153,-5.671 6.672,-6.478z" fill="#aa5d29"></path><path d="M17.202,11.682c1.044,-1.625 -0.571,-2.975 -1.374,-3.779c-0.803,-0.803 -2.29,-1.685 -4.609,-1.685c-4.351,0 -5.009,4.353 -5.009,5.093c0,3.663 3.003,6.64 4.369,6.801c1.366,0.161 6.107,-5.628 6.623,-6.43z" fill="#a95d29"></path><path d="M17.172,11.696c1.037,-1.613 -0.566,-2.953 -1.364,-3.75c-0.798,-0.797 -2.273,-1.673 -4.574,-1.673c-4.319,0 -4.972,4.32 -4.972,5.055c0,3.635 2.98,6.591 4.336,6.75c1.356,0.16 6.063,-5.586 6.574,-6.382z" fill="#a85c29"></path><path d="M17.143,11.71c1.029,-1.6 -0.562,-2.931 -1.353,-3.722c-0.791,-0.791 -2.256,-1.66 -4.54,-1.66c-4.286,0 -4.934,4.288 -4.934,5.017c0,3.608 2.958,6.541 4.303,6.699c1.345,0.158 6.016,-5.545 6.524,-6.334z" fill="#a75c29"></path><path d="M17.113,11.724c1.021,-1.588 -0.558,-2.908 -1.343,-3.694c-0.785,-0.785 -2.239,-1.648 -4.505,-1.648c-4.254,0 -4.897,4.255 -4.897,4.979c0,3.581 2.936,6.492 4.271,6.649c1.335,0.157 5.97,-5.503 6.474,-6.286z" fill="#a65b28"></path><path d="M17.083,11.738c1.013,-1.576 -0.553,-2.886 -1.333,-3.666c-0.78,-0.78 -2.222,-1.635 -4.471,-1.635c-4.221,0 -4.859,4.223 -4.859,4.941c0,3.553 2.913,6.442 4.238,6.598c1.325,0.155 5.925,-5.461 6.425,-6.238z" fill="#a55b28"></path><path d="M17.054,11.751c1.005,-1.564 -0.549,-2.864 -1.323,-3.637c-0.774,-0.773 -2.204,-1.622 -4.437,-1.622c-4.189,0 -4.822,4.19 -4.822,4.903c0,3.526 2.891,6.392 4.206,6.547c1.315,0.155 5.88,-5.419 6.376,-6.191z" fill="#a45a28"></path><path d="M17.024,11.765c0.998,-1.552 -0.545,-2.842 -1.312,-3.609c-0.767,-0.767 -2.187,-1.61 -4.402,-1.61c-4.156,0 -4.784,4.158 -4.784,4.865c0,3.499 2.868,6.343 4.173,6.496c1.304,0.154 5.833,-5.376 6.325,-6.142z" fill="#a35928"></path><path d="M16.995,11.779c0.99,-1.54 -0.541,-2.819 -1.302,-3.581c-0.761,-0.762 -2.17,-1.597 -4.368,-1.597c-4.124,0 -4.747,4.125 -4.747,4.827c0,3.471 2.846,6.293 4.14,6.445c1.294,0.152 5.788,-5.334 6.277,-6.094z" fill="#a25928"></path><path d="M16.965,11.793c0.982,-1.528 -0.536,-2.797 -1.292,-3.553c-0.755,-0.755 -2.153,-1.585 -4.333,-1.585c-4.091,0 -4.71,4.093 -4.71,4.789c0,3.444 2.823,6.244 4.108,6.395c1.284,0.151 5.742,-5.293 6.227,-6.046z" fill="#a15827"></path><path d="M16.935,11.807c0.974,-1.516 -0.532,-2.775 -1.282,-3.524c-0.749,-0.749 -2.136,-1.572 -4.299,-1.572c-4.058,0 -4.672,4.06 -4.672,4.751c0,3.417 2.801,6.194 4.075,6.344c1.274,0.15 5.698,-5.252 6.178,-5.999z" fill="#a05827"></path><path d="M16.906,11.82c0.966,-1.503 -0.528,-2.753 -1.271,-3.496c-0.743,-0.743 -2.119,-1.559 -4.264,-1.559c-4.026,0 -4.635,4.028 -4.635,4.712c0,3.389 2.779,6.144 4.042,6.293c1.263,0.149 5.651,-5.208 6.128,-5.95z" fill="#9f5727"></path><path d="M16.876,11.834c0.959,-1.491 -0.524,-2.731 -1.261,-3.468c-0.737,-0.737 -2.102,-1.547 -4.23,-1.547c-3.993,0 -4.597,3.995 -4.597,4.674c0,3.362 2.756,6.095 4.01,6.242c1.253,0.148 5.605,-5.165 6.078,-5.901z" fill="#9e5727"></path><path d="M16.847,11.848c0.951,-1.479 -0.519,-2.708 -1.251,-3.44c-0.731,-0.731 -2.085,-1.534 -4.196,-1.534c-3.961,0 -4.56,3.963 -4.56,4.636c0,3.334 2.734,6.045 3.977,6.191c1.243,0.146 5.561,-5.123 6.03,-5.853z" fill="#9d5626"></path><path d="M16.817,11.862c0.943,-1.467 -0.515,-2.686 -1.241,-3.412c-0.726,-0.726 -2.068,-1.522 -4.161,-1.522c-3.928,0 -4.523,3.93 -4.523,4.598c0,3.307 2.711,5.995 3.944,6.141c1.234,0.146 5.516,-5.081 5.981,-5.805z" fill="#9c5526"></path><path d="M16.787,11.876c0.935,-1.455 -0.511,-2.664 -1.23,-3.383c-0.719,-0.719 -2.051,-1.509 -4.127,-1.509c-3.896,0 -4.485,3.898 -4.485,4.56c0,3.28 2.689,5.946 3.912,6.09c1.223,0.144 5.469,-5.041 5.93,-5.758z" fill="#9b5526"></path><path d="M16.758,11.889c0.927,-1.443 -0.507,-2.642 -1.22,-3.355c-0.713,-0.713 -2.033,-1.496 -4.092,-1.496c-3.863,0 -4.448,3.865 -4.448,4.522c0,3.252 2.666,5.896 3.879,6.039c1.213,0.143 5.423,-4.998 5.881,-5.71z" fill="#9a5426"></path><path d="M16.728,11.903c0.92,-1.431 -0.502,-2.619 -1.21,-3.327c-0.708,-0.708 -2.016,-1.484 -4.058,-1.484c-3.831,0 -4.41,3.833 -4.41,4.484c0,3.225 2.644,5.847 3.847,5.988c1.203,0.142 5.378,-4.955 5.831,-5.661z" fill="#995426"></path><path d="M16.699,11.917c0.912,-1.418 -0.498,-2.597 -1.2,-3.299c-0.701,-0.701 -1.999,-1.471 -4.023,-1.471c-3.798,0 -4.373,3.8 -4.373,4.446c0,3.198 2.621,5.797 3.814,5.937c1.193,0.14 5.332,-4.913 5.782,-5.613z" fill="#995325"></path><path d="M16.669,11.931c0.904,-1.406 -0.494,-2.575 -1.189,-3.27c-0.695,-0.695 -1.982,-1.459 -3.989,-1.459c-3.766,0 -4.335,3.768 -4.335,4.408c0,3.17 2.599,5.747 3.781,5.887c1.182,0.139 5.286,-4.872 5.732,-5.566z" fill="#985325"></path><path d="M16.639,11.945c0.896,-1.394 -0.49,-2.553 -1.179,-3.242c-0.689,-0.689 -1.965,-1.446 -3.955,-1.446c-3.733,0 -4.298,3.735 -4.298,4.37c0,3.143 2.577,5.698 3.749,5.836c1.172,0.138 5.241,-4.831 5.683,-5.518z" fill="#975225"></path><path d="M16.61,11.959c0.888,-1.382 -0.485,-2.531 -1.169,-3.214c-0.683,-0.683 -1.948,-1.434 -3.92,-1.434c-3.701,0 -4.261,3.703 -4.261,4.332c0,3.116 2.554,5.648 3.716,5.785c1.162,0.137 5.196,-4.788 5.634,-5.469z" fill="#965225"></path><path d="M16.58,11.972c0.881,-1.37 -0.481,-2.508 -1.158,-3.186c-0.677,-0.678 -1.931,-1.421 -3.886,-1.421c-3.668,0 -4.223,3.67 -4.223,4.294c0,3.088 2.532,5.599 3.683,5.734c1.152,0.136 5.15,-4.745 5.584,-5.421z" fill="#955125"></path><path d="M16.551,11.986c0.873,-1.358 -0.477,-2.486 -1.148,-3.158c-0.671,-0.671 -1.914,-1.408 -3.851,-1.408c-3.636,0 -4.186,3.638 -4.186,4.256c0,3.061 2.509,5.549 3.651,5.683c1.142,0.134 5.103,-4.703 5.534,-5.373z" fill="#945024"></path><path d="M16.521,12c0.865,-1.346 -0.473,-2.464 -1.138,-3.129c-0.665,-0.665 -1.897,-1.396 -3.817,-1.396c-3.603,0 -4.148,3.605 -4.148,4.218c0,3.033 2.487,5.499 3.618,5.633c1.131,0.132 5.058,-4.662 5.485,-5.326z" fill="#935024"></path><path d="M16.491,12.014c0.857,-1.333 -0.468,-2.442 -1.128,-3.101c-0.659,-0.659 -1.879,-1.383 -3.782,-1.383c-3.571,0 -4.111,3.573 -4.111,4.18c0,3.006 2.464,5.45 3.585,5.582c1.121,0.132 5.014,-4.62 5.436,-5.278z" fill="#924f24"></path><path d="M16.462,12.028c0.849,-1.321 -0.464,-2.419 -1.117,-3.073c-0.653,-0.653 -1.862,-1.371 -3.748,-1.371c-3.538,0 -4.074,3.54 -4.074,4.142c0,2.979 2.442,5.4 3.553,5.531c1.111,0.131 4.967,-4.578 5.386,-5.229z" fill="#914f24"></path><path d="M16.432,12.041c0.842,-1.309 -0.46,-2.397 -1.107,-3.045c-0.647,-0.647 -1.845,-1.358 -3.714,-1.358c-3.506,0 -4.036,3.508 -4.036,4.104c0,2.951 2.42,5.351 3.52,5.48c1.1,0.129 4.922,-4.535 5.337,-5.181z" fill="#904e23"></path><path d="M16.403,12.055c0.834,-1.297 -0.455,-2.375 -1.097,-3.016c-0.641,-0.641 -1.828,-1.345 -3.679,-1.345c-3.473,0 -3.999,3.475 -3.999,4.066c0,2.924 2.397,5.301 3.488,5.429c1.09,0.128 4.875,-4.494 5.287,-5.134z" fill="#8f4e23"></path><path d="M16.373,12.069c0.826,-1.285 -0.451,-2.353 -1.087,-2.988c-0.635,-0.635 -1.811,-1.333 -3.645,-1.333c-3.441,0 -3.961,3.443 -3.961,4.028c0,2.897 2.375,5.251 3.455,5.378c1.08,0.127 4.831,-4.451 5.238,-5.085z" fill="#8e4d23"></path><path d="M16.343,12.083c0.818,-1.273 -0.447,-2.331 -1.076,-2.96c-0.629,-0.629 -1.794,-1.32 -3.61,-1.32c-3.408,0 -3.924,3.41 -3.924,3.99c0,2.869 2.352,5.202 3.422,5.328c1.07,0.126 4.785,-4.41 5.188,-5.038z" fill="#8d4c23"></path><path d="M16.314,12.097c0.81,-1.261 -0.443,-2.308 -1.066,-2.932c-0.623,-0.624 -1.777,-1.308 -3.576,-1.308c-3.376,0 -3.886,3.377 -3.886,3.952c0,2.842 2.33,5.152 3.39,5.277c1.059,0.124 4.738,-4.368 5.138,-4.989z" fill="#8c4c23"></path><path d="M16.284,12.11c0.803,-1.248 -0.438,-2.286 -1.056,-2.904c-0.617,-0.617 -1.76,-1.295 -3.541,-1.295c-3.343,0 -3.849,3.345 -3.849,3.914c0,2.815 2.307,5.103 3.357,5.226c1.05,0.123 4.693,-4.325 5.089,-4.941z" fill="#8b4b22"></path><path d="M16.255,12.124c0.795,-1.236 -0.434,-2.264 -1.046,-2.875c-0.611,-0.611 -1.743,-1.282 -3.507,-1.282c-3.311,0 -3.812,3.312 -3.812,3.875c0,2.787 2.285,5.053 3.324,5.175c1.04,0.123 4.649,-4.283 5.041,-4.893z" fill="#8a4b22"></path><path d="M16.225,12.138c0.787,-1.224 -0.43,-2.242 -1.035,-2.847c-0.605,-0.605 -1.725,-1.27 -3.473,-1.27c-3.278,0 -3.774,3.28 -3.774,3.837c0,2.76 2.263,5.003 3.292,5.124c1.029,0.122 4.602,-4.24 4.99,-4.844z" fill="#894a22"></path><path d="M16.196,12.152c0.779,-1.212 -0.426,-2.219 -1.025,-2.819c-0.599,-0.599 -1.708,-1.257 -3.438,-1.257c-3.246,0 -3.737,3.247 -3.737,3.799c0,2.732 2.24,4.954 3.259,5.074c1.019,0.12 4.556,-4.199 4.941,-4.797z" fill="#884a22"></path><path d="M16.166,12.166c0.771,-1.2 -0.421,-2.197 -1.015,-2.791c-0.594,-0.594 -1.691,-1.245 -3.404,-1.245c-3.213,0 -3.699,3.215 -3.699,3.761c0,2.705 2.218,4.904 3.226,5.023c1.009,0.119 4.511,-4.156 4.892,-4.748z" fill="#874921"></path><path d="M16.136,12.179c0.764,-1.188 -0.417,-2.175 -1.004,-2.762c-0.587,-0.587 -1.674,-1.232 -3.369,-1.232c-3.181,0 -3.662,3.182 -3.662,3.723c0,2.678 2.195,4.855 3.194,4.972c0.999,0.117 4.465,-4.115 4.841,-4.701z" fill="#864921"></path><path d="M16.107,12.193c0.756,-1.176 -0.413,-2.153 -0.994,-2.734c-0.581,-0.581 -1.658,-1.219 -3.335,-1.219c-3.148,0 -3.625,3.15 -3.625,3.685c0,2.65 2.173,4.805 3.161,4.921c0.988,0.116 4.42,-4.073 4.793,-4.653z" fill="#854821"></path><path d="M30.36,36.608c0,3.477 -2.819,5.39 -6.296,5.39c-3.477,0 -6.296,-1.913 -6.296,-5.39c0,-3.477 2.819,-16.219 6.296,-16.219c3.477,0 6.296,12.742 6.296,16.219z" fill="url(#color-6)"></path><ellipse cx="24" cy="33" rx="5.245" ry="9" fill="url(#color-7)"></ellipse><path d="M24,33c-2.5,0 -3.5,1 -3.5,2c0,1 0.5,2 1,2.5c0.5,0.5 1,1.5 2.5,1.5c1.5,0 2,-1 2.5,-1.5c0.5,-0.5 1,-1.5 1,-2.5c0,-1 -1,-2 -3.5,-2z" fill="url(#color-8)"></path><circle cx="25.25" cy="35.75" r="0.75" fill="url(#color-9)"></circle><circle cx="22.75" cy="35.75" r="0.75" fill="url(#color-10)"></circle><path d="M20,40c1,0 2.776,0.945 4,-0.279c1.218,1.218 3,0.279 4,0.279c0,1 -2.747,1 -4,1c-1.253,0 -4,0 -4,-1z" fill="url(#color-11)"></path><path d="M34.201,24.154c0.058,1.637 -1.322,3.015 -3.083,3.078c-1.761,0.063 -3.235,-1.214 -3.293,-2.852c-0.058,-1.637 1.322,-3.015 3.083,-3.078c1.761,-0.063 3.235,1.215 3.293,2.852z" fill="url(#color-12)"></path><path d="M30.158,23.117c-0.547,0.157 -0.901,0.504 -1.147,0.912c-0.003,0.036 -0.011,0.077 -0.011,0.106c0,1.115 0.87,1.865 1.855,1.865c0.974,0 2.145,-0.709 2.145,-2.102c0,-0.154 -0.042,-0.267 -0.084,-0.378c-0.706,-0.37 -1.706,-0.705 -2.758,-0.403z" fill="url(#color-13)"></path><g><path d="M30.68,11.627c-1.076,-1.673 0.588,-3.064 1.415,-3.891c0.827,-0.828 2.358,-1.736 4.746,-1.736c4.481,0 5.159,4.483 5.159,5.245c0,3.772 -3.093,6.839 -4.499,7.004c-1.407,0.166 -6.29,-5.796 -6.821,-6.622z" fill="#ad5f2a"></path><path d="M30.71,11.641c-1.068,-1.661 0.583,-3.042 1.405,-3.863c0.821,-0.821 2.341,-1.723 4.712,-1.723c4.449,0 5.121,4.451 5.121,5.207c0,3.745 -3.07,6.789 -4.467,6.953c-1.397,0.164 -6.245,-5.755 -6.771,-6.574z" fill="#ac5e2a"></path><path d="M30.739,11.655c-1.06,-1.649 0.579,-3.02 1.395,-3.835c0.815,-0.815 2.324,-1.71 4.678,-1.71c4.416,0 5.084,4.418 5.084,5.169c0,3.717 -3.048,6.74 -4.434,6.903c-1.387,0.162 -6.2,-5.714 -6.723,-6.527z" fill="#ab5e2a"></path><path d="M30.769,11.669c-1.052,-1.637 0.575,-2.997 1.384,-3.807c0.809,-0.809 2.307,-1.698 4.643,-1.698c4.384,0 5.046,4.386 5.046,5.131c0,3.69 -3.025,6.69 -4.401,6.852c-1.376,0.162 -6.153,-5.671 -6.672,-6.478z" fill="#aa5d29"></path><path d="M30.798,11.682c-1.044,-1.625 0.571,-2.975 1.374,-3.779c0.803,-0.804 2.29,-1.685 4.609,-1.685c4.351,0 5.009,4.353 5.009,5.093c0,3.663 -3.003,6.64 -4.369,6.801c-1.366,0.161 -6.107,-5.628 -6.623,-6.43z" fill="#a95d29"></path><path d="M30.828,11.696c-1.037,-1.613 0.566,-2.953 1.364,-3.75c0.797,-0.797 2.273,-1.673 4.574,-1.673c4.319,0 4.972,4.32 4.972,5.055c0,3.635 -2.98,6.591 -4.336,6.75c-1.356,0.16 -6.063,-5.586 -6.574,-6.382z" fill="#a85c29"></path><path d="M30.857,11.71c-1.029,-1.6 0.562,-2.931 1.353,-3.722c0.791,-0.791 2.256,-1.66 4.54,-1.66c4.286,0 4.934,4.288 4.934,5.017c0,3.608 -2.958,6.541 -4.303,6.699c-1.345,0.158 -6.016,-5.545 -6.524,-6.334z" fill="#a75c29"></path><path d="M30.887,11.724c-1.021,-1.588 0.558,-2.908 1.343,-3.694c0.785,-0.785 2.239,-1.648 4.505,-1.648c4.254,0 4.897,4.255 4.897,4.979c0,3.581 -2.936,6.492 -4.271,6.649c-1.335,0.157 -5.97,-5.503 -6.474,-6.286z" fill="#a65b28"></path><path d="M30.917,11.738c-1.013,-1.576 0.553,-2.886 1.333,-3.666c0.78,-0.78 2.222,-1.635 4.471,-1.635c4.221,0 4.859,4.223 4.859,4.941c0,3.553 -2.913,6.442 -4.238,6.598c-1.325,0.155 -5.925,-5.461 -6.425,-6.238z" fill="#a55b28"></path><path d="M30.946,11.751c-1.005,-1.564 0.549,-2.864 1.323,-3.637c0.773,-0.773 2.204,-1.622 4.437,-1.622c4.189,0 4.822,4.19 4.822,4.903c0,3.526 -2.891,6.392 -4.206,6.547c-1.315,0.155 -5.88,-5.419 -6.376,-6.191z" fill="#a45a28"></path><path d="M30.976,11.765c-0.998,-1.552 0.545,-2.842 1.312,-3.609c0.767,-0.767 2.187,-1.61 4.402,-1.61c4.156,0 4.784,4.158 4.784,4.865c0,3.499 -2.868,6.343 -4.173,6.496c-1.304,0.154 -5.833,-5.376 -6.325,-6.142z" fill="#a35928"></path><path d="M31.005,11.779c-0.99,-1.54 0.541,-2.819 1.302,-3.581c0.761,-0.761 2.17,-1.597 4.368,-1.597c4.124,0 4.747,4.125 4.747,4.827c0,3.471 -2.846,6.293 -4.14,6.445c-1.294,0.152 -5.788,-5.334 -6.277,-6.094z" fill="#a25928"></path><path d="M31.035,11.793c-0.982,-1.528 0.536,-2.797 1.292,-3.553c0.755,-0.755 2.153,-1.585 4.333,-1.585c4.091,0 4.71,4.093 4.71,4.789c0,3.444 -2.823,6.244 -4.108,6.395c-1.284,0.151 -5.742,-5.293 -6.227,-6.046z" fill="#a15827"></path><path d="M31.065,11.807c-0.974,-1.516 0.532,-2.775 1.282,-3.524c0.749,-0.749 2.136,-1.572 4.299,-1.572c4.058,0 4.672,4.06 4.672,4.751c0,3.417 -2.801,6.194 -4.075,6.344c-1.274,0.15 -5.698,-5.252 -6.178,-5.999z" fill="#a05827"></path><path d="M31.094,11.82c-0.966,-1.503 0.528,-2.753 1.271,-3.496c0.743,-0.743 2.119,-1.559 4.264,-1.559c4.026,0 4.635,4.028 4.635,4.712c0,3.389 -2.779,6.144 -4.042,6.293c-1.263,0.149 -5.651,-5.208 -6.128,-5.95z" fill="#9f5727"></path><path d="M31.124,11.834c-0.959,-1.491 0.524,-2.731 1.261,-3.468c0.737,-0.737 2.102,-1.547 4.23,-1.547c3.993,0 4.597,3.995 4.597,4.674c0,3.362 -2.756,6.095 -4.01,6.242c-1.253,0.148 -5.605,-5.165 -6.078,-5.901z" fill="#9e5727"></path><path d="M31.153,11.848c-0.951,-1.479 0.519,-2.708 1.251,-3.44c0.731,-0.731 2.085,-1.534 4.196,-1.534c3.961,0 4.56,3.963 4.56,4.636c0,3.334 -2.734,6.045 -3.977,6.191c-1.243,0.146 -5.561,-5.123 -6.03,-5.853z" fill="#9d5626"></path><path d="M31.183,11.862c-0.943,-1.467 0.515,-2.686 1.241,-3.412c0.726,-0.726 2.068,-1.522 4.161,-1.522c3.928,0 4.523,3.93 4.523,4.598c0,3.307 -2.711,5.995 -3.944,6.141c-1.234,0.146 -5.516,-5.081 -5.981,-5.805z" fill="#9c5526"></path><path d="M31.213,11.876c-0.935,-1.455 0.511,-2.664 1.23,-3.383c0.719,-0.719 2.051,-1.509 4.127,-1.509c3.896,0 4.485,3.898 4.485,4.56c0,3.28 -2.689,5.946 -3.912,6.09c-1.223,0.144 -5.469,-5.041 -5.93,-5.758z" fill="#9b5526"></path><path d="M31.242,11.889c-0.927,-1.443 0.507,-2.642 1.22,-3.355c0.713,-0.713 2.033,-1.496 4.092,-1.496c3.863,0 4.448,3.865 4.448,4.522c0,3.252 -2.666,5.896 -3.879,6.039c-1.213,0.143 -5.423,-4.998 -5.881,-5.71z" fill="#9a5426"></path><path d="M31.272,11.903c-0.92,-1.431 0.502,-2.619 1.21,-3.327c0.707,-0.707 2.016,-1.484 4.058,-1.484c3.831,0 4.41,3.833 4.41,4.484c0,3.225 -2.644,5.847 -3.847,5.988c-1.203,0.142 -5.378,-4.955 -5.831,-5.661z" fill="#995426"></path><path d="M31.301,11.917c-0.912,-1.418 0.498,-2.597 1.2,-3.299c0.701,-0.701 1.999,-1.471 4.023,-1.471c3.798,0 4.373,3.8 4.373,4.446c0,3.198 -2.621,5.797 -3.814,5.937c-1.192,0.141 -5.332,-4.913 -5.782,-5.613z" fill="#995325"></path><path d="M31.331,11.931c-0.904,-1.406 0.494,-2.575 1.189,-3.27c0.695,-0.695 1.982,-1.459 3.989,-1.459c3.766,0 4.335,3.768 4.335,4.408c0,3.17 -2.599,5.747 -3.781,5.887c-1.182,0.139 -5.286,-4.872 -5.732,-5.566z" fill="#985325"></path><path d="M31.361,11.945c-0.896,-1.394 0.49,-2.553 1.179,-3.242c0.689,-0.689 1.965,-1.446 3.955,-1.446c3.733,0 4.298,3.735 4.298,4.37c0,3.143 -2.577,5.698 -3.749,5.836c-1.172,0.138 -5.241,-4.831 -5.683,-5.518z" fill="#975225"></path><path d="M31.39,11.959c-0.888,-1.382 0.485,-2.531 1.169,-3.214c0.683,-0.683 1.948,-1.434 3.92,-1.434c3.701,0 4.261,3.703 4.261,4.332c0,3.116 -2.554,5.648 -3.716,5.785c-1.162,0.137 -5.196,-4.788 -5.634,-5.469z" fill="#965225"></path><path d="M31.42,11.972c-0.881,-1.37 0.481,-2.508 1.158,-3.186c0.677,-0.677 1.931,-1.421 3.886,-1.421c3.668,0 4.223,3.67 4.223,4.294c0,3.088 -2.532,5.599 -3.683,5.734c-1.152,0.136 -5.15,-4.745 -5.584,-5.421z" fill="#955125"></path><path d="M31.449,11.986c-0.873,-1.358 0.477,-2.486 1.148,-3.158c0.671,-0.671 1.914,-1.408 3.851,-1.408c3.636,0 4.186,3.638 4.186,4.256c0,3.061 -2.509,5.549 -3.651,5.683c-1.142,0.134 -5.103,-4.703 -5.534,-5.373z" fill="#945024"></path><path d="M31.479,12c-0.865,-1.346 0.473,-2.464 1.138,-3.129c0.665,-0.665 1.897,-1.396 3.817,-1.396c3.603,0 4.148,3.605 4.148,4.218c0,3.033 -2.487,5.499 -3.618,5.633c-1.131,0.132 -5.058,-4.662 -5.485,-5.326z" fill="#935024"></path><path d="M31.509,12.014c-0.857,-1.333 0.468,-2.442 1.128,-3.101c0.659,-0.659 1.879,-1.383 3.782,-1.383c3.571,0 4.111,3.573 4.111,4.18c0,3.006 -2.464,5.45 -3.585,5.582c-1.122,0.131 -5.014,-4.62 -5.436,-5.278z" fill="#924f24"></path><path d="M31.538,12.028c-0.849,-1.321 0.464,-2.419 1.117,-3.073c0.653,-0.653 1.862,-1.371 3.748,-1.371c3.538,0 4.074,3.54 4.074,4.142c0,2.979 -2.442,5.4 -3.553,5.531c-1.111,0.131 -4.967,-4.578 -5.386,-5.229z" fill="#914f24"></path><path d="M31.568,12.041c-0.842,-1.309 0.46,-2.397 1.107,-3.045c0.647,-0.647 1.845,-1.358 3.714,-1.358c3.506,0 4.036,3.508 4.036,4.104c0,2.951 -2.42,5.351 -3.52,5.48c-1.1,0.129 -4.922,-4.535 -5.337,-5.181z" fill="#904e23"></path><path d="M31.597,12.055c-0.834,-1.297 0.455,-2.375 1.097,-3.016c0.641,-0.641 1.828,-1.345 3.679,-1.345c3.473,0 3.999,3.475 3.999,4.066c0,2.924 -2.397,5.301 -3.488,5.429c-1.09,0.128 -4.875,-4.494 -5.287,-5.134z" fill="#8f4e23"></path><path d="M31.627,12.069c-0.826,-1.285 0.451,-2.353 1.087,-2.988c0.636,-0.635 1.811,-1.333 3.645,-1.333c3.441,0 3.961,3.443 3.961,4.028c0,2.897 -2.375,5.251 -3.455,5.378c-1.08,0.127 -4.831,-4.451 -5.238,-5.085z" fill="#8e4d23"></path><path d="M31.657,12.083c-0.818,-1.273 0.447,-2.331 1.076,-2.96c0.629,-0.629 1.794,-1.32 3.61,-1.32c3.408,0 3.924,3.41 3.924,3.99c0,2.869 -2.352,5.202 -3.422,5.328c-1.07,0.125 -4.785,-4.41 -5.188,-5.038z" fill="#8d4c23"></path><path d="M31.686,12.097c-0.81,-1.261 0.443,-2.308 1.066,-2.932c0.623,-0.624 1.777,-1.308 3.576,-1.308c3.376,0 3.886,3.377 3.886,3.952c0,2.842 -2.33,5.152 -3.39,5.277c-1.059,0.124 -4.738,-4.368 -5.138,-4.989z" fill="#8c4c23"></path><path d="M31.716,12.11c-0.803,-1.248 0.438,-2.286 1.056,-2.904c0.617,-0.617 1.76,-1.295 3.541,-1.295c3.343,0 3.849,3.345 3.849,3.914c0,2.815 -2.307,5.103 -3.357,5.226c-1.05,0.123 -4.693,-4.325 -5.089,-4.941z" fill="#8b4b22"></path><path d="M31.745,12.124c-0.795,-1.236 0.434,-2.264 1.046,-2.875c0.611,-0.611 1.743,-1.282 3.507,-1.282c3.311,0 3.812,3.312 3.812,3.875c0,2.787 -2.285,5.053 -3.324,5.175c-1.04,0.123 -4.649,-4.283 -5.041,-4.893z" fill="#8a4b22"></path><path d="M31.775,12.138c-0.787,-1.224 0.43,-2.242 1.035,-2.847c0.605,-0.605 1.725,-1.27 3.473,-1.27c3.278,0 3.774,3.28 3.774,3.837c0,2.76 -2.263,5.003 -3.292,5.124c-1.029,0.122 -4.602,-4.24 -4.99,-4.844z" fill="#894a22"></path><path d="M31.804,12.152c-0.779,-1.212 0.426,-2.219 1.025,-2.819c0.599,-0.599 1.708,-1.257 3.438,-1.257c3.246,0 3.737,3.247 3.737,3.799c0,2.732 -2.24,4.954 -3.259,5.074c-1.019,0.12 -4.556,-4.199 -4.941,-4.797z" fill="#884a22"></path><path d="M31.834,12.166c-0.771,-1.2 0.421,-2.197 1.015,-2.791c0.594,-0.594 1.691,-1.245 3.404,-1.245c3.213,0 3.699,3.215 3.699,3.761c0,2.705 -2.218,4.904 -3.226,5.023c-1.009,0.119 -4.511,-4.156 -4.892,-4.748z" fill="#874921"></path><path d="M31.864,12.179c-0.764,-1.188 0.417,-2.175 1.004,-2.762c0.587,-0.587 1.674,-1.232 3.369,-1.232c3.181,0 3.662,3.182 3.662,3.723c0,2.678 -2.195,4.855 -3.194,4.972c-0.999,0.117 -4.465,-4.115 -4.841,-4.701z" fill="#864921"></path><path d="M31.893,12.193c-0.756,-1.176 0.413,-2.153 0.994,-2.734c0.581,-0.581 1.657,-1.219 3.335,-1.219c3.148,0 3.625,3.15 3.625,3.685c0,2.65 -2.173,4.805 -3.161,4.921c-0.989,0.116 -4.42,-4.073 -4.793,-4.653z" fill="#854821"></path></g><ellipse cx="30.625" cy="23.926" rx="0.405" ry="0.4" fill="#bababa"></ellipse><path d="M13.799,24.154c-0.058,1.637 1.322,3.015 3.083,3.078c1.761,0.063 3.235,-1.214 3.293,-2.852c0.058,-1.637 -1.322,-3.015 -3.083,-3.078c-1.761,-0.063 -3.235,1.215 -3.293,2.852z" fill="url(#color-14)"></path><path d="M17.842,23.117c0.547,0.157 0.901,0.504 1.147,0.912c0.003,0.036 0.011,0.077 0.011,0.106c0,1.115 -0.87,1.865 -1.855,1.865c-0.974,0 -2.145,-0.709 -2.145,-2.102c0,-0.154 0.042,-0.267 0.084,-0.378c0.706,-0.37 1.706,-0.705 2.758,-0.403z" fill="url(#color-15)"></path><ellipse cx="16.618" cy="23.926" rx="0.405" ry="0.4" fill="#bababa"></ellipse></g></g></svg>
