<svg version="1.1" xmlns="http://www.w3.org/2000/svg" xmlns:xlink="http://www.w3.org/1999/xlink" width="48px" height="48px" viewBox="0,0,256,256">
    <defs>
        <linearGradient x1="13.173" y1="1.186" x2="29.784" y2="44.33" gradientUnits="userSpaceOnUse" id="color-1">
            <stop offset="0" stop-color="#fac791"></stop>
            <stop offset="0.306" stop-color="#f27630"></stop>
            <stop offset="0.721" stop-color="#eb5b11"></stop>
            <stop offset="0.975" stop-color="#e84f03"></stop>
        </linearGradient>
        <radialGradient cx="24" cy="33.62146" r="21.485" gradientUnits="userSpaceOnUse" id="color-2">
            <stop offset="0" stop-color="#ef6a22" stop-opacity="0"></stop>
            <stop offset="0.307" stop-color="#f3712b" stop-opacity="0.369"></stop>
            <stop offset="0.811" stop-color="#fe8244" stop-opacity="0.973"></stop>
            <stop offset="0.833" stop-color="#ff8345"></stop>
            <stop offset="0.907" stop-color="#fd8142" stop-opacity="0.56"></stop>
            <stop offset="0.97" stop-color="#f77b37" stop-opacity="0.182"></stop>
            <stop offset="1" stop-color="#f2762f" stop-opacity="0"></stop>
        </radialGradient>
        <radialGradient cx="24" cy="37.52993" r="15.958" gradientUnits="userSpaceOnUse" id="color-3">
            <stop offset="0" stop-color="#c14717"></stop>
            <stop offset="0.201" stop-color="#ca501e"></stop>
            <stop offset="0.531" stop-color="#e36830"></stop>
            <stop offset="0.833" stop-color="#ff8345"></stop>
            <stop offset="0.907" stop-color="#fd8142" stop-opacity="0.56"></stop>
            <stop offset="0.97" stop-color="#f77b37" stop-opacity="0.182"></stop>
            <stop offset="1" stop-color="#f2762f" stop-opacity="0"></stop>
        </radialGradient>
        <radialGradient cx="23.874" cy="27.75544" r="18.88" gradientUnits="userSpaceOnUse" id="color-4">
            <stop offset="0.361" stop-color="#932a00"></stop>
            <stop offset="1" stop-color="#f99c6c" stop-opacity="0"></stop>
        </radialGradient><radialGradient cx="24.215" cy="8.31602" r="4.884" gradientUnits="userSpaceOnUse" id="color-5"><stop offset="0" stop-color="#d75e25"></stop><stop offset="0.564" stop-color="#ef7130" stop-opacity="0.392"></stop><stop offset="0.928" stop-color="#f87834" stop-opacity="0"></stop></radialGradient><radialGradient cx="23.785" cy="8.51411" r="5.036" gradientUnits="userSpaceOnUse" id="color-6"><stop offset="0" stop-color="#d75e25"></stop><stop offset="0.564" stop-color="#ef7130" stop-opacity="0.392"></stop><stop offset="0.928" stop-color="#f87834" stop-opacity="0"></stop></radialGradient><linearGradient x1="36.423" y1="7.102" x2="41.637" y2="12.597" gradientUnits="userSpaceOnUse" id="color-7"><stop offset="0" stop-color="#f48744"></stop><stop offset="0.013" stop-color="#f38340"></stop><stop offset="0.1" stop-color="#ef712a"></stop><stop offset="0.202" stop-color="#ed6319"></stop>
            <stop offset="0.329" stop-color="#eb580e"></stop>
            <stop offset="0.506" stop-color="#e95307"></stop>
            <stop offset="1" stop-color="#e95105"></stop>
        </linearGradient>
        <linearGradient x1="8.841" y1="6.183" x2="11.561" y2="13.253" gradientUnits="userSpaceOnUse" id="color-8">
            <stop offset="0" stop-color="#fab780"></stop>
            <stop offset="0.055" stop-color="#f8a76c"></stop>
            <stop offset="0.148" stop-color="#f59252"></stop>
            <stop offset="0.25" stop-color="#f3813e"></stop>
            <stop offset="0.365" stop-color="#f1752f"></stop>
            <stop offset="0.503" stop-color="#f06e27"></stop>
            <stop offset="0.727" stop-color="#f06c24"></stop>
        </linearGradient>
        <radialGradient cx="24" cy="22.63593" r="11.653" gradientUnits="userSpaceOnUse" id="color-9">
            <stop offset="0.728" stop-color="#ffcc80"></stop>
            <stop offset="0.8" stop-color="#ffca7b"></stop>
            <stop offset="0.882" stop-color="#ffc56e"></stop>
            <stop offset="0.968" stop-color="#ffbb57"></stop>
            <stop offset="1" stop-color="#ffb74d"></stop>
        </radialGradient>
        <radialGradient cx="23.692" cy="19.75092" r="11.679" gradientUnits="userSpaceOnUse" id="color-10">
            <stop offset="0.553" stop-color="#ffe0b2" stop-opacity="0"></stop>
            <stop offset="0.579" stop-color="#ffddab" stop-opacity="0.059"></stop>
            <stop offset="0.767" stop-color="#ffca80" stop-opacity="0.479"></stop>
            <stop offset="0.913" stop-color="#ffbd66" stop-opacity="0.806"></stop>
            <stop offset="1" stop-color="#ffb95c"></stop>
        </radialGradient>
        <radialGradient cx="23.907" cy="11.94647" r="4.504" gradientUnits="userSpaceOnUse" id="color-11">
            <stop offset="0" stop-color="#ffb95d"></stop>
            <stop offset="0.166" stop-color="#ffbe66" stop-opacity="0.629"></stop>
            <stop offset="0.439" stop-color="#ffcc7f" stop-opacity="0.018"></stop>
            <stop offset="0.447" stop-color="#ffcc80" stop-opacity="0"></stop>
        </radialGradient>
        <radialGradient cx="23.96277" cy="0.75212" r="13.756" gradientUnits="userSpaceOnUse" id="color-12">
            <stop offset="0.797" stop-color="#ffb85a"></stop>
            <stop offset="0.835" stop-color="#ffbc63" stop-opacity="0.813"></stop>
            <stop offset="0.897" stop-color="#ffc87c" stop-opacity="0.504"></stop>
            <stop offset="0.977" stop-color="#ffdaa5" stop-opacity="0.115"></stop>
            <stop offset="1" stop-color="#ffe0b2" stop-opacity="0"></stop>
        </radialGradient>
        <radialGradient cx="27.95364" cy="20.58032" r="6.512" gradientUnits="userSpaceOnUse" id="color-13">
            <stop offset="0.268" stop-color="#ffe0b2"></stop>
            <stop offset="0.927" stop-color="#ffe0b2" stop-opacity="0"></stop>
        </radialGradient>
        <radialGradient cx="20.08864" cy="20.58012" r="6.512" gradientUnits="userSpaceOnUse" id="color-14">
            <stop offset="0.268" stop-color="#ffe0b2"></stop>
            <stop offset="0.927" stop-color="#ffe0b2" stop-opacity="0"></stop>
        </radialGradient>
        <radialGradient cx="24" cy="34" r="5" gradientUnits="userSpaceOnUse" id="color-15">
            <stop offset="0.66" stop-color="#e2dfd7" stop-opacity="0"></stop>
            <stop offset="0.792" stop-color="#d8c3ad" stop-opacity="0.388"></stop>
            <stop offset="1" stop-color="#c69363"></stop>
        </radialGradient>
        <radialGradient cx="24" cy="34" r="5" gradientUnits="userSpaceOnUse" id="color-16">
            <stop offset="0" stop-color="#c69363"></stop>
            <stop offset="0.105" stop-color="#c79668" stop-opacity="0.833"></stop>
            <stop offset="0.226" stop-color="#cb9f76" stop-opacity="0.641"></stop>
            <stop offset="0.355" stop-color="#d0ae8d" stop-opacity="0.436"></stop>
            <stop offset="0.489" stop-color="#d8c4ad" stop-opacity="0.222"></stop>
            <stop offset="0.627" stop-color="#e2dfd6" stop-opacity="0.004"></stop>
            <stop offset="0.629" stop-color="#e2dfd7" stop-opacity="0"></stop>
        </radialGradient>
        <linearGradient x1="17" y1="30" x2="24" y2="30" gradientUnits="userSpaceOnUse" id="color-17">
            <stop offset="0" stop-color="#f7b982"></stop>
            <stop offset="0.024" stop-color="#f7ba82" stop-opacity="0.976"></stop>
            <stop offset="0.541" stop-color="#fdc780" stop-opacity="0.459"></stop>
            <stop offset="1" stop-color="#ffcc80" stop-opacity="0"></stop>
        </linearGradient>
        <linearGradient x1="31" y1="30" x2="24" y2="30" gradientUnits="userSpaceOnUse" id="color-18">
            <stop offset="0" stop-color="#f7b982"></stop>
            <stop offset="0.024" stop-color="#f7ba82" stop-opacity="0.976"></stop>
            <stop offset="0.541" stop-color="#fdc780" stop-opacity="0.459"></stop>
            <stop offset="1" stop-color="#ffcc80" stop-opacity="0"></stop>
        </linearGradient>
        <radialGradient cx="24.125" cy="29.86487" r="8.921" gradientUnits="userSpaceOnUse" id="color-19">
            <stop offset="0" stop-color="#c69363"></stop>
            <stop offset="0.472" stop-color="#ede1d6"></stop>
            <stop offset="0.555" stop-color="#ecdfd2"></stop>
            <stop offset="0.631" stop-color="#e8d7c7"></stop>
            <stop offset="0.704" stop-color="#e2cab5"></stop>
            <stop offset="0.776" stop-color="#d9b99b"></stop>
            <stop offset="0.845" stop-color="#cea279"></stop>
            <stop offset="0.885" stop-color="#c69363"></stop>
        </radialGradient>
    </defs>
    <g fill="none" fill-rule="nonzero" stroke="none" stroke-width="1" stroke-linecap="butt" stroke-linejoin="miter" stroke-miterlimit="10" stroke-dasharray="" stroke-dashoffset="0" font-family="none" font-weight="none" font-size="none" text-anchor="none" style="mix-blend-mode: normal">
        <g transform="scale(5.33333,5.33333)">
            <path d="M45,28c0,9 -2,13 -2,13c0,0 -3,-2 -4,-3c0,2 -1.39,5.04 -3,6c-2,-2 -4,-3 -4,-3c-2,4 -8,4 -8,4c0,0 -6,0 -8,-4c0,0 -2,1 -4,3c-1.61,-0.96 -3,-4 -3,-6c-1,1 -4,3 -4,3c0,0 -2,-4 -2,-13c0,-7 4.04,-16.84 7,-20c2.34,-2.5 6,-6 10,-6c2.67,0 4,1 4,1c0,0 1.33,-1 4,-1c4,0 7.66,3.5 10,6c2.96,3.16 7,13 7,20z" fill="url(#color-1)"></path>
            <path d="M45,28c0,9 -2,13 -2,13c0,0 -3,-2 -4,-3c0,2 -1.39,5.04 -3,6c-2,-2 -4,-3 -4,-3c-2,4 -8,4 -8,4c0,0 -6,0 -8,-4c0,0 -2,1 -4,3c-1.61,-0.96 -3,-4 -3,-6c-1,1 -4,3 -4,3c0,0 -2,-4 -2,-13c0,-7 4.04,-16.84 7,-20c2.34,-2.5 14,-1 14,-1c0,0 11.66,-1.5 14,1c2.96,3.16 7,13 7,20z" fill="url(#color-2)"></path>
            <path d="M39,38c0,2 -1.39,5.04 -3,6c-2,-2 -4,-3 -4,-3c-2,4 -8,6 -8,6c0,0 -6,-2 -8,-6c0,0 -2,1 -4,3c-1.61,-0.96 -3,-4 -3,-6c0,0 2.04,-15.84 5,-19c2.34,-2.5 10,-4 10,-4c0,0 7.66,1.5 10,4c2.96,3.16 5,19 5,19z" fill="url(#color-3)"></path>
            <path d="M45,28c0,9 -2,13 -2,13c0,0 -3,-2 -4,-3c0,2 -1.39,5.04 -3,6c-2,-2 -4,-3 -4,-3c-2,4 -8,6 -8,6c0,0 -6,-2 -8,-6c0,0 -2,1 -4,3c-1.61,-0.96 -3,-4 -3,-6c-1,1 -4,3 -4,3c0,0 -2,-4 -2,-13c0,-7 4.04,-16.84 7,-20c2.34,-2.5 6,-6 10,-6c2.67,0 4,1 4,1c0,0 1.33,-1 4,-1c4,0 7.66,3.5 10,6c2.96,3.16 7,13 7,20z" fill="url(#color-4)"></path>
            <path d="M24,3v31c-11.095,0 -17.688,-0.088 -20.73,-0.71c-0.16,-1.47 -0.27,-3.22 -0.27,-5.29c0,-7 4.04,-16.84 7,-20c1.83,-1.95 4.46,-4.51 7.42,-5.54c0.84,-0.29 1.7,-0.46 2.58,-0.46c2.67,0 4,1 4,1z" fill="url(#color-5)"></path>
            <path d="M24,3v32c11.05,0 18.04,-1.16 20.73,-1.71c0.16,-1.47 0.27,-3.22 0.27,-5.29c0,-7 -4.04,-16.84 -7,-20c-1.83,-1.95 -4.46,-4.51 -7.42,-5.54c-0.84,-0.29 -1.7,-0.46 -2.58,-0.46c-2.67,0 -4,1 -4,1z" fill="url(#color-6)"></path>
            <path d="M41,9.71c0,3.02 -0.85,4.33 -1.62,4.89c-0.07,-0.13 -1.38,-2.6 -4.99,-6.32c1.12,-1.04 2.71,-2.28 3.94,-2.28c2.14,0 2.67,1.59 2.67,3.71z" fill="url(#color-7)"></path>
            <path d="M40,10.31c0,1.035 -0.113,1.82 -0.283,2.428c-0.17,0.608 -0.397,1.037 -0.627,1.362c-0.26,-0.425 -0.705,-1.105 -1.381,-1.994c-0.338,-0.444 -0.734,-0.941 -1.194,-1.484c-0.46,-0.543 -0.983,-1.132 -1.575,-1.762c0.435,-0.435 0.947,-0.9 1.464,-1.256c0.517,-0.356 1.036,-0.604 1.486,-0.604c1.69,0 2.11,1.42 2.11,3.31z" fill="#ffcc80"></path>
            <path d="M36.396,7.645c0.514,-0.354 1.031,-0.599 1.478,-0.599c0.754,0 1.253,0.286 1.573,0.772c0.389,0.591 0.515,1.477 0.517,2.503c0.001,0.713 -0.053,1.306 -0.142,1.805c-0.039,0.216 -0.084,0.414 -0.135,0.597c-0.167,0.6 -0.39,1.026 -0.616,1.349c-0.26,-0.424 -0.702,-1.098 -1.373,-1.979c-0.335,-0.44 -0.727,-0.932 -1.182,-1.47c-0.453,-0.536 -0.969,-1.117 -1.554,-1.739c0.427,-0.428 0.929,-0.887 1.434,-1.239z" fill="#fcc97e"></path>
            <path d="M36.389,7.686c0.513,-0.352 1.026,-0.595 1.47,-0.594c0.745,0 1.239,0.283 1.556,0.765c0.385,0.584 0.511,1.46 0.513,2.476c0.001,0.704 -0.051,1.291 -0.138,1.785c-0.038,0.214 -0.082,0.41 -0.132,0.59c-0.164,0.593 -0.383,1.015 -0.606,1.336c-0.26,-0.422 -0.699,-1.092 -1.364,-1.964c-0.332,-0.436 -0.721,-0.923 -1.171,-1.455c-0.447,-0.529 -0.956,-1.102 -1.532,-1.715c0.417,-0.423 0.909,-0.876 1.404,-1.224z" fill="#fac67c"></path>
            <path d="M36.382,7.728c0.511,-0.35 1.021,-0.59 1.462,-0.59c0.737,0 1.225,0.281 1.54,0.757c0.381,0.578 0.506,1.444 0.509,2.449c0.002,0.695 -0.049,1.276 -0.134,1.766c-0.037,0.211 -0.081,0.405 -0.13,0.584c-0.161,0.586 -0.376,1.004 -0.595,1.323c-0.259,-0.421 -0.697,-1.085 -1.355,-1.95c-0.329,-0.432 -0.714,-0.914 -1.16,-1.441c-0.441,-0.521 -0.943,-1.087 -1.51,-1.691c0.407,-0.417 0.888,-0.864 1.373,-1.207z" fill="#f7c47a"></path>
            <path d="M36.375,7.769c0.509,-0.348 1.016,-0.585 1.453,-0.585c0.728,0 1.211,0.278 1.523,0.75c0.377,0.571 0.501,1.428 0.506,2.422c0.002,0.686 -0.047,1.261 -0.131,1.746c-0.036,0.209 -0.079,0.4 -0.127,0.577c-0.158,0.579 -0.369,0.993 -0.584,1.31c-0.259,-0.419 -0.694,-1.079 -1.347,-1.935c-0.326,-0.428 -0.707,-0.905 -1.148,-1.427c-0.435,-0.514 -0.93,-1.072 -1.489,-1.667c0.399,-0.411 0.869,-0.852 1.344,-1.191z" fill="#f5c178"></path>
            <path d="M36.367,7.81c0.507,-0.345 1.011,-0.581 1.445,-0.58c0.72,0.001 1.197,0.275 1.506,0.743c0.373,0.565 0.497,1.411 0.502,2.395c0.003,0.677 -0.045,1.245 -0.127,1.727c-0.036,0.206 -0.078,0.396 -0.124,0.571c-0.155,0.571 -0.362,0.981 -0.573,1.296c-0.259,-0.418 -0.691,-1.072 -1.338,-1.921c-0.323,-0.424 -0.701,-0.897 -1.137,-1.412c-0.429,-0.507 -0.916,-1.056 -1.467,-1.643c0.389,-0.407 0.85,-0.841 1.313,-1.176z" fill="#f2be77"></path>
            <path d="M36.36,7.852c0.505,-0.343 1.006,-0.576 1.437,-0.575c0.711,0.001 1.184,0.272 1.489,0.735c0.368,0.558 0.492,1.395 0.498,2.368c0.003,0.668 -0.044,1.23 -0.124,1.707c-0.035,0.204 -0.076,0.391 -0.122,0.564c-0.152,0.564 -0.355,0.97 -0.562,1.283c-0.259,-0.417 -0.688,-1.066 -1.329,-1.906c-0.321,-0.42 -0.694,-0.888 -1.126,-1.398c-0.423,-0.5 -0.903,-1.041 -1.446,-1.619c0.382,-0.401 0.832,-0.829 1.285,-1.159z" fill="#efbb75"></path>
            <path d="M36.353,7.893c0.503,-0.341 1.001,-0.571 1.428,-0.571c0.702,0.001 1.17,0.269 1.472,0.728c0.364,0.552 0.487,1.379 0.495,2.341c0.004,0.66 -0.041,1.215 -0.12,1.688c-0.034,0.201 -0.074,0.387 -0.119,0.558c-0.148,0.557 -0.348,0.959 -0.551,1.27c-0.259,-0.415 -0.685,-1.059 -1.321,-1.891c-0.318,-0.416 -0.687,-0.879 -1.114,-1.384c-0.417,-0.492 -0.89,-1.026 -1.424,-1.596c0.372,-0.395 0.811,-0.817 1.254,-1.143z" fill="#edb973"></path>
            <path d="M36.345,7.934c0.502,-0.339 0.996,-0.567 1.42,-0.566c0.694,0.001 1.156,0.267 1.456,0.72c0.36,0.545 0.483,1.362 0.491,2.314c0.004,0.651 -0.039,1.2 -0.116,1.668c-0.033,0.199 -0.072,0.382 -0.117,0.551c-0.144,0.55 -0.341,0.948 -0.54,1.257c-0.259,-0.414 -0.683,-1.053 -1.312,-1.877c-0.315,-0.412 -0.681,-0.87 -1.103,-1.369c-0.411,-0.485 -0.876,-1.011 -1.403,-1.572c0.363,-0.388 0.792,-0.804 1.224,-1.126z" fill="#eab671"></path>
            <path d="M36.338,7.976c0.5,-0.337 0.99,-0.562 1.412,-0.561c0.685,0.001 1.142,0.264 1.439,0.713c0.356,0.539 0.478,1.346 0.488,2.287c0.005,0.642 -0.037,1.185 -0.113,1.649c-0.032,0.196 -0.071,0.377 -0.114,0.545c-0.141,0.543 -0.334,0.937 -0.529,1.244c-0.258,-0.413 -0.68,-1.046 -1.303,-1.862c-0.312,-0.408 -0.674,-0.861 -1.092,-1.355c-0.404,-0.478 -0.863,-0.996 -1.381,-1.548c0.353,-0.385 0.772,-0.795 1.193,-1.112z" fill="#e8b36f"></path>
            <path d="M36.331,8.017c0.498,-0.334 0.985,-0.558 1.404,-0.556c0.677,0.001 1.129,0.261 1.422,0.706c0.352,0.533 0.473,1.33 0.484,2.26c0.005,0.633 -0.035,1.17 -0.109,1.629c-0.031,0.194 -0.069,0.373 -0.112,0.538c-0.138,0.536 -0.327,0.925 -0.518,1.23c-0.258,-0.411 -0.677,-1.04 -1.295,-1.847c-0.309,-0.404 -0.667,-0.852 -1.08,-1.341c-0.398,-0.471 -0.85,-0.98 -1.359,-1.524c0.344,-0.378 0.752,-0.781 1.163,-1.095z" fill="#e5b06d"></path>
            <path d="M36.323,8.058c0.496,-0.332 0.98,-0.553 1.395,-0.552c0.668,0.001 1.115,0.258 1.405,0.698c0.347,0.526 0.469,1.314 0.48,2.233c0.006,0.624 -0.033,1.154 -0.105,1.61c-0.03,0.191 -0.067,0.368 -0.109,0.532c-0.135,0.528 -0.32,0.914 -0.507,1.217c-0.258,-0.41 -0.674,-1.033 -1.286,-1.833c-0.306,-0.4 -0.661,-0.843 -1.069,-1.326c-0.392,-0.464 -0.837,-0.965 -1.338,-1.5c0.337,-0.372 0.734,-0.769 1.134,-1.079z" fill="#e2ae6b"></path>
            <path d="M36.316,8.1c0.494,-0.33 0.975,-0.548 1.387,-0.547c0.66,0.001 1.101,0.255 1.389,0.691c0.343,0.52 0.464,1.297 0.477,2.206c0.006,0.615 -0.031,1.139 -0.102,1.59c-0.03,0.189 -0.066,0.363 -0.107,0.525c-0.132,0.521 -0.313,0.903 -0.496,1.204c-0.258,-0.408 -0.671,-1.027 -1.277,-1.818c-0.303,-0.396 -0.654,-0.834 -1.058,-1.312c-0.386,-0.456 -0.823,-0.95 -1.316,-1.476c0.326,-0.367 0.713,-0.758 1.103,-1.063z" fill="#e0ab69"></path>
            <path d="M36.309,8.141c0.492,-0.328 0.97,-0.544 1.379,-0.542c0.651,0.002 1.087,0.253 1.372,0.683c0.339,0.513 0.459,1.281 0.473,2.179c0.007,0.606 -0.029,1.124 -0.098,1.571c-0.029,0.186 -0.064,0.359 -0.104,0.519c-0.128,0.514 -0.306,0.892 -0.485,1.191c-0.258,-0.407 -0.669,-1.02 -1.269,-1.803c-0.3,-0.392 -0.647,-0.826 -1.047,-1.297c-0.38,-0.449 -0.81,-0.935 -1.295,-1.453c0.318,-0.362 0.695,-0.747 1.074,-1.048z" fill="#dda867"></path>
            <path d="M36.301,8.182c0.491,-0.326 0.965,-0.539 1.371,-0.538c0.643,0.002 1.073,0.25 1.355,0.676c0.335,0.507 0.457,1.265 0.469,2.152c0.009,0.598 -0.027,1.109 -0.094,1.551c-0.028,0.184 -0.063,0.354 -0.102,0.512c-0.125,0.507 -0.299,0.881 -0.474,1.178c-0.258,-0.406 -0.666,-1.014 -1.26,-1.789c-0.297,-0.387 -0.641,-0.817 -1.035,-1.283c-0.374,-0.442 -0.797,-0.92 -1.273,-1.429c0.309,-0.355 0.675,-0.733 1.043,-1.03z" fill="#dba565"></path>
            <path d="M36.294,8.223c0.489,-0.324 0.96,-0.535 1.362,-0.533c0.634,0.002 1.06,0.247 1.338,0.668c0.331,0.5 0.452,1.248 0.466,2.125c0.009,0.589 -0.025,1.094 -0.091,1.532c-0.027,0.181 -0.061,0.349 -0.099,0.506c-0.122,0.5 -0.292,0.869 -0.463,1.164c-0.257,-0.404 -0.663,-1.007 -1.251,-1.774c-0.294,-0.383 -0.634,-0.808 -1.024,-1.269c-0.368,-0.435 -0.784,-0.904 -1.252,-1.405c0.3,-0.349 0.656,-0.721 1.014,-1.014z" fill="#d8a364"></path>
            <path d="M36.287,8.265c0.487,-0.321 0.955,-0.53 1.354,-0.528c0.626,0.002 1.046,0.244 1.322,0.661c0.326,0.494 0.447,1.232 0.462,2.098c0.01,0.58 -0.023,1.079 -0.087,1.512c-0.026,0.179 -0.059,0.345 -0.097,0.499c-0.119,0.492 -0.285,0.858 -0.452,1.151c-0.257,-0.403 -0.66,-1.001 -1.243,-1.76c-0.291,-0.379 -0.627,-0.799 -1.013,-1.254c-0.362,-0.427 -0.77,-0.889 -1.23,-1.381c0.291,-0.344 0.636,-0.71 0.984,-0.998z" fill="#d5a062"></path>
            <path d="M36.28,8.306c0.485,-0.319 0.95,-0.525 1.346,-0.523c0.617,0.002 1.032,0.241 1.305,0.654c0.322,0.487 0.443,1.216 0.459,2.071c0.01,0.571 -0.021,1.063 -0.084,1.493c-0.026,0.176 -0.058,0.34 -0.094,0.493c-0.116,0.485 -0.278,0.847 -0.441,1.138c-0.257,-0.402 -0.657,-0.994 -1.234,-1.745c-0.288,-0.375 -0.621,-0.79 -1.001,-1.24c-0.356,-0.42 -0.757,-0.874 -1.208,-1.357c0.28,-0.34 0.615,-0.7 0.952,-0.984z" fill="#d39d60"></path>
            <path d="M36.272,8.347c0.483,-0.317 0.945,-0.521 1.338,-0.519c0.608,0.002 1.018,0.239 1.288,0.646c0.318,0.481 0.438,1.199 0.455,2.044c0.011,0.562 -0.019,1.048 -0.08,1.473c-0.025,0.174 -0.056,0.335 -0.091,0.486c-0.113,0.478 -0.271,0.836 -0.43,1.125c-0.257,-0.4 -0.655,-0.988 -1.225,-1.73c-0.285,-0.371 -0.614,-0.781 -0.99,-1.226c-0.349,-0.413 -0.744,-0.859 -1.187,-1.334c0.271,-0.331 0.596,-0.685 0.922,-0.965z" fill="#d09a5e"></path>
            <path d="M36.265,8.389c0.481,-0.315 0.94,-0.516 1.329,-0.514c0.6,0.002 1.005,0.236 1.271,0.639c0.314,0.474 0.434,1.183 0.451,2.017c0.012,0.553 -0.017,1.033 -0.076,1.454c-0.024,0.171 -0.054,0.331 -0.089,0.48c-0.109,0.471 -0.264,0.824 -0.419,1.112c-0.257,-0.399 -0.652,-0.981 -1.217,-1.716c-0.282,-0.367 -0.607,-0.772 -0.979,-1.211c-0.343,-0.406 -0.73,-0.844 -1.165,-1.31c0.264,-0.328 0.578,-0.676 0.894,-0.951z" fill="#ce985c"></path>
            <path d="M36.258,8.43c0.48,-0.313 0.935,-0.512 1.321,-0.509c0.591,0.002 0.991,0.233 1.255,0.631c0.31,0.468 0.429,1.167 0.448,1.99c0.012,0.545 -0.015,1.018 -0.073,1.434c-0.023,0.169 -0.053,0.326 -0.086,0.473c-0.106,0.464 -0.257,0.813 -0.408,1.098c-0.257,-0.397 -0.649,-0.975 -1.208,-1.701c-0.28,-0.363 -0.601,-0.763 -0.967,-1.197c-0.337,-0.399 -0.717,-0.829 -1.144,-1.286c0.253,-0.32 0.556,-0.662 0.862,-0.933z" fill="#cb955a"></path>
            <path d="M36.25,8.471c0.478,-0.311 0.929,-0.507 1.313,-0.504c0.583,0.002 0.977,0.23 1.238,0.624c0.305,0.461 0.425,1.151 0.444,1.963c0.013,0.536 -0.013,1.003 -0.069,1.415c-0.023,0.166 -0.051,0.321 -0.084,0.467c-0.103,0.456 -0.25,0.802 -0.397,1.085c-0.256,-0.396 -0.646,-0.968 -1.199,-1.686c-0.277,-0.359 -0.594,-0.755 -0.956,-1.183c-0.331,-0.391 -0.704,-0.813 -1.122,-1.262c0.244,-0.316 0.538,-0.652 0.832,-0.919z" fill="#c89258"></path>
            <path d="M36.243,8.513c0.476,-0.308 0.924,-0.502 1.305,-0.5c0.574,0.003 0.963,0.227 1.221,0.616c0.301,0.455 0.42,1.134 0.44,1.936c0.013,0.527 -0.011,0.987 -0.065,1.395c-0.022,0.164 -0.049,0.317 -0.081,0.46c-0.1,0.449 -0.243,0.791 -0.386,1.072c-0.256,-0.395 -0.643,-0.962 -1.191,-1.672c-0.274,-0.355 -0.587,-0.746 -0.945,-1.168c-0.325,-0.384 -0.691,-0.798 -1.101,-1.238c0.236,-0.309 0.519,-0.639 0.803,-0.901z" fill="#c68f56"></path>
            <path d="M36.236,8.554c0.474,-0.306 0.919,-0.498 1.296,-0.495c0.566,0.003 0.95,0.225 1.204,0.609c0.297,0.449 0.415,1.118 0.437,1.909c0.014,0.518 -0.009,0.972 -0.062,1.376c-0.021,0.161 -0.048,0.312 -0.079,0.454c-0.097,0.442 -0.236,0.78 -0.375,1.059c-0.256,-0.393 -0.641,-0.955 -1.182,-1.657c-0.271,-0.351 -0.581,-0.737 -0.933,-1.154c-0.319,-0.377 -0.677,-0.783 -1.079,-1.214c0.227,-0.306 0.499,-0.629 0.773,-0.887z" fill="#c38d54"></path>
            <path d="M36.228,8.595c0.472,-0.304 0.914,-0.493 1.288,-0.49c0.557,0.003 0.936,0.222 1.187,0.602c0.293,0.442 0.411,1.102 0.433,1.882c0.015,0.509 -0.007,0.957 -0.058,1.356c-0.02,0.159 -0.046,0.308 -0.076,0.447c-0.094,0.435 -0.229,0.768 -0.364,1.045c-0.256,-0.392 -0.638,-0.949 -1.173,-1.643c-0.268,-0.347 -0.574,-0.728 -0.922,-1.14c-0.313,-0.37 -0.664,-0.768 -1.057,-1.191c0.217,-0.297 0.479,-0.614 0.742,-0.868z" fill="#c18a52"></path>
            <path d="M36.221,8.637c0.47,-0.302 0.909,-0.488 1.28,-0.485c0.549,0.003 0.922,0.219 1.171,0.594c0.289,0.436 0.406,1.085 0.43,1.855c0.015,0.5 -0.005,0.942 -0.054,1.337c-0.019,0.156 -0.045,0.303 -0.074,0.441c-0.091,0.428 -0.222,0.757 -0.353,1.032c-0.256,-0.391 -0.635,-0.942 -1.165,-1.628c-0.265,-0.343 -0.567,-0.719 -0.911,-1.125c-0.307,-0.363 -0.651,-0.753 -1.036,-1.167c0.208,-0.294 0.46,-0.605 0.712,-0.854z" fill="#be8751"></path>
            <path d="M36.214,8.678c0.469,-0.3 0.904,-0.484 1.272,-0.481c0.54,0.003 0.908,0.216 1.154,0.587c0.284,0.429 0.402,1.069 0.426,1.828c0.016,0.491 -0.004,0.927 -0.051,1.317c-0.019,0.154 -0.043,0.298 -0.071,0.434c-0.087,0.42 -0.215,0.746 -0.342,1.019c-0.256,-0.389 -0.632,-0.936 -1.156,-1.613c-0.262,-0.339 -0.561,-0.71 -0.899,-1.111c-0.3,-0.355 -0.637,-0.737 -1.014,-1.143c0.198,-0.287 0.439,-0.592 0.681,-0.837z" fill="#bb844f"></path>
            <path d="M36.206,8.719c0.467,-0.297 0.899,-0.479 1.263,-0.476c0.531,0.003 0.894,0.214 1.137,0.579c0.28,0.423 0.397,1.053 0.422,1.801c0.016,0.483 -0.002,0.911 -0.047,1.298c-0.018,0.151 -0.041,0.294 -0.069,0.428c-0.084,0.413 -0.208,0.735 -0.331,1.006c-0.255,-0.388 -0.629,-0.929 -1.147,-1.599c-0.259,-0.335 -0.554,-0.701 -0.888,-1.097c-0.294,-0.348 -0.624,-0.722 -0.993,-1.119c0.192,-0.281 0.422,-0.58 0.653,-0.821z" fill="#b9824d"></path>
            <path d="M36.199,8.761c0.465,-0.295 0.894,-0.475 1.255,-0.471c0.523,0.003 0.881,0.211 1.12,0.572c0.276,0.416 0.392,1.036 0.419,1.774c0.017,0.474 0,0.896 -0.044,1.278c-0.017,0.149 -0.04,0.289 -0.066,0.421c-0.081,0.406 -0.201,0.724 -0.32,0.993c-0.255,-0.386 -0.627,-0.923 -1.139,-1.584c-0.256,-0.331 -0.547,-0.692 -0.877,-1.082c-0.288,-0.341 -0.611,-0.707 -0.971,-1.095c0.182,-0.277 0.402,-0.57 0.623,-0.806z" fill="#b67f4b"></path>
            <path d="M36.192,8.802c0.463,-0.293 0.889,-0.47 1.247,-0.467c0.514,0.003 0.867,0.208 1.104,0.565c0.272,0.41 0.388,1.02 0.415,1.747c0.017,0.465 0.002,0.881 -0.04,1.259c-0.016,0.146 -0.038,0.284 -0.064,0.415c-0.078,0.399 -0.194,0.712 -0.309,0.979c-0.255,-0.385 -0.624,-0.916 -1.13,-1.569c-0.253,-0.327 -0.541,-0.684 -0.865,-1.068c-0.282,-0.334 -0.598,-0.692 -0.95,-1.071c0.172,-0.271 0.382,-0.557 0.592,-0.79z" fill="#b37c49"></path>
            <path d="M36.185,8.843c0.461,-0.291 0.884,-0.465 1.239,-0.462c0.506,0.004 0.853,0.205 1.087,0.557c0.268,0.403 0.383,1.004 0.411,1.72c0.018,0.456 0.004,0.866 -0.036,1.239c-0.016,0.144 -0.036,0.28 -0.061,0.408c-0.075,0.391 -0.187,0.701 -0.298,0.966c-0.255,-0.384 -0.621,-0.91 -1.121,-1.555c-0.25,-0.323 -0.534,-0.675 -0.854,-1.054c-0.276,-0.326 -0.584,-0.677 -0.928,-1.048c0.162,-0.262 0.361,-0.542 0.561,-0.771z" fill="#b17947"></path>
            <path d="M36.177,8.885c0.459,-0.289 0.879,-0.461 1.23,-0.457c0.497,0.004 0.839,0.202 1.07,0.55c0.263,0.397 0.379,0.987 0.408,1.693c0.019,0.447 0.006,0.851 -0.033,1.22c-0.015,0.141 -0.035,0.275 -0.059,0.402c-0.072,0.384 -0.18,0.69 -0.287,0.953c-0.255,-0.382 -0.618,-0.903 -1.113,-1.54c-0.247,-0.318 -0.527,-0.666 -0.843,-1.039c-0.27,-0.319 -0.571,-0.661 -0.906,-1.024c0.155,-0.261 0.344,-0.534 0.533,-0.758z" fill="#ae7645"></path>
            <path d="M36.17,8.926c0.458,-0.287 0.873,-0.456 1.222,-0.452c0.489,0.004 0.826,0.2 1.053,0.542c0.259,0.39 0.374,0.971 0.404,1.666c0.019,0.438 0.008,0.835 -0.029,1.2c-0.014,0.139 -0.033,0.27 -0.056,0.395c-0.069,0.377 -0.173,0.679 -0.276,0.94c-0.254,-0.381 -0.615,-0.897 -1.104,-1.525c-0.244,-0.314 -0.521,-0.657 -0.832,-1.025c-0.264,-0.312 -0.558,-0.646 -0.885,-1c0.146,-0.254 0.324,-0.521 0.503,-0.741z" fill="#ac7443"></path>
            <path d="M36.163,8.967c0.456,-0.284 0.868,-0.452 1.214,-0.448c0.48,0.004 0.812,0.197 1.037,0.535c0.255,0.384 0.369,0.955 0.401,1.639c0.02,0.429 0.01,0.82 -0.025,1.181c-0.013,0.136 -0.032,0.266 -0.053,0.389c-0.066,0.37 -0.166,0.668 -0.265,0.927c-0.254,-0.379 -0.613,-0.89 -1.095,-1.511c-0.241,-0.31 -0.514,-0.648 -0.82,-1.011c-0.258,-0.305 -0.545,-0.631 -0.863,-0.976c0.133,-0.248 0.3,-0.509 0.469,-0.725z" fill="#a97141"></path>
            <path d="M36.155,9.008c0.454,-0.282 0.863,-0.447 1.206,-0.443c0.472,0.004 0.798,0.194 1.02,0.527c0.251,0.378 0.365,0.939 0.397,1.612c0.02,0.421 0.012,0.805 -0.022,1.161c-0.013,0.134 -0.03,0.261 -0.051,0.382c-0.063,0.362 -0.159,0.656 -0.254,0.913c-0.254,-0.378 -0.61,-0.884 -1.087,-1.496c-0.238,-0.306 -0.507,-0.639 -0.809,-0.996c-0.251,-0.298 -0.531,-0.616 -0.842,-0.952c0.127,-0.241 0.285,-0.496 0.442,-0.708z" fill="#a66e40"></path>
            <path d="M36.148,9.05c0.452,-0.28 0.858,-0.442 1.197,-0.438c0.463,0.004 0.784,0.191 1.003,0.52c0.247,0.371 0.36,0.922 0.393,1.585c0.021,0.412 0.014,0.79 -0.018,1.142c-0.012,0.131 -0.028,0.256 -0.048,0.376c-0.06,0.355 -0.152,0.645 -0.243,0.9c-0.254,-0.377 -0.607,-0.877 -1.078,-1.482c-0.236,-0.302 -0.501,-0.63 -0.798,-0.982c-0.245,-0.29 -0.518,-0.601 -0.82,-0.929c0.118,-0.236 0.265,-0.485 0.412,-0.692z" fill="#a46b3e"></path>
            <path d="M36.141,9.091c0.45,-0.278 0.853,-0.438 1.189,-0.433c0.454,0.004 0.771,0.188 0.986,0.513c0.242,0.365 0.355,0.906 0.39,1.558c0.021,0.403 0.015,0.775 -0.014,1.122c-0.011,0.129 -0.027,0.252 -0.046,0.369c-0.057,0.348 -0.145,0.634 -0.232,0.887c-0.254,-0.375 -0.604,-0.871 -1.069,-1.467c-0.233,-0.298 -0.494,-0.621 -0.786,-0.968c-0.239,-0.283 -0.505,-0.585 -0.799,-0.905c0.108,-0.23 0.244,-0.473 0.381,-0.676z" fill="#a1693c"></path>
            <path d="M36.133,9.132c0.448,-0.276 0.848,-0.433 1.181,-0.429c0.446,0.004 0.757,0.186 0.97,0.505c0.238,0.358 0.351,0.89 0.386,1.531c0.022,0.394 0.017,0.759 -0.011,1.103c-0.01,0.126 -0.025,0.247 -0.043,0.363c-0.054,0.341 -0.138,0.623 -0.221,0.874c-0.254,-0.374 -0.601,-0.864 -1.061,-1.452c-0.23,-0.294 -0.487,-0.613 -0.775,-0.953c-0.233,-0.276 -0.491,-0.57 -0.777,-0.881c0.099,-0.225 0.225,-0.462 0.351,-0.661z" fill="#9f663a"></path>
            <path d="M36.126,9.174c0.447,-0.274 0.843,-0.429 1.173,-0.424c0.437,0.005 0.743,0.183 0.953,0.498c0.234,0.352 0.346,0.873 0.382,1.504c0.022,0.385 0.019,0.744 -0.007,1.083c-0.01,0.124 -0.023,0.242 -0.041,0.356c-0.051,0.333 -0.131,0.611 -0.21,0.861c-0.253,-0.373 -0.599,-0.858 -1.052,-1.438c-0.227,-0.29 -0.481,-0.604 -0.764,-0.939c-0.227,-0.269 -0.478,-0.555 -0.755,-0.857c0.09,-0.219 0.206,-0.45 0.321,-0.644z" fill="#9c6338"></path>
            <path d="M36.119,9.215c0.445,-0.271 0.838,-0.424 1.164,-0.419c0.429,0.005 0.729,0.18 0.936,0.49c0.23,0.345 0.341,0.857 0.379,1.477c0.023,0.376 0.021,0.729 -0.004,1.064c-0.009,0.121 -0.022,0.238 -0.038,0.35c-0.048,0.326 -0.124,0.6 -0.199,0.847c-0.253,-0.371 -0.596,-0.851 -1.043,-1.423c-0.224,-0.286 -0.474,-0.595 -0.752,-0.925c-0.221,-0.261 -0.465,-0.54 -0.734,-0.833c0.081,-0.213 0.186,-0.438 0.291,-0.628z" fill="#996036"></path>
            <path d="M36.111,9.256c0.443,-0.269 0.833,-0.419 1.156,-0.415c0.42,0.005 0.715,0.177 0.919,0.483c0.226,0.339 0.337,0.841 0.375,1.45c0.023,0.368 0.023,0.714 0,1.044c-0.008,0.119 -0.02,0.233 -0.036,0.343c-0.045,0.319 -0.117,0.589 -0.188,0.834c-0.253,-0.37 -0.593,-0.845 -1.035,-1.408c-0.221,-0.282 -0.467,-0.586 -0.741,-0.91c-0.215,-0.254 -0.452,-0.525 -0.712,-0.809c0.073,-0.208 0.168,-0.426 0.262,-0.612z" fill="#975e34"></path>
            <path d="M36.104,9.298c0.441,-0.267 0.828,-0.415 1.148,-0.41c0.412,0.005 0.702,0.174 0.902,0.476c0.221,0.332 0.332,0.824 0.372,1.423c0.024,0.359 0.024,0.698 0.004,1.025c-0.007,0.116 -0.019,0.228 -0.033,0.337c-0.042,0.312 -0.11,0.578 -0.177,0.821c-0.253,-0.368 -0.59,-0.838 -1.026,-1.394c-0.218,-0.278 -0.461,-0.577 -0.73,-0.896c-0.209,-0.247 -0.438,-0.509 -0.691,-0.786c0.063,-0.203 0.147,-0.415 0.231,-0.596z" fill="#945b32"></path>
            <path d="M36.097,9.339c0.439,-0.265 0.823,-0.41 1.14,-0.405c0.403,0.005 0.688,0.172 0.886,0.468c0.217,0.326 0.327,0.808 0.368,1.396c0.024,0.35 0.026,0.683 0.007,1.005c-0.007,0.114 -0.017,0.224 -0.031,0.33c-0.039,0.304 -0.103,0.567 -0.166,0.808c-0.253,-0.367 -0.587,-0.832 -1.017,-1.379c-0.215,-0.274 -0.454,-0.568 -0.718,-0.882c-0.203,-0.24 -0.425,-0.494 -0.669,-0.762c0.053,-0.196 0.127,-0.402 0.2,-0.579z" fill="#925830"></path>
            <path d="M36.09,9.38c0.437,-0.263 0.818,-0.405 1.131,-0.4c0.395,0.005 0.674,0.169 0.869,0.461c0.213,0.319 0.322,0.792 0.364,1.369c0.025,0.341 0.028,0.668 0.011,0.986c-0.006,0.111 -0.016,0.219 -0.028,0.324c-0.036,0.297 -0.096,0.555 -0.155,0.795c-0.253,-0.366 -0.585,-0.825 -1.009,-1.365c-0.212,-0.27 -0.447,-0.559 -0.707,-0.867c-0.196,-0.233 -0.412,-0.479 -0.648,-0.738c0.046,-0.192 0.109,-0.392 0.172,-0.565z" fill="#8f552e"></path>
            <path d="M36.082,9.422c0.436,-0.26 0.812,-0.401 1.123,-0.396c0.386,0.005 0.66,0.166 0.852,0.453c0.209,0.313 0.318,0.775 0.361,1.342c0.025,0.332 0.03,0.653 0.015,0.966c-0.005,0.109 -0.014,0.214 -0.026,0.317c-0.033,0.29 -0.089,0.544 -0.144,0.781c-0.252,-0.364 -0.582,-0.819 -1,-1.35c-0.209,-0.266 -0.441,-0.55 -0.696,-0.853c-0.19,-0.225 -0.399,-0.464 -0.626,-0.714c0.036,-0.184 0.089,-0.378 0.141,-0.546z" fill="#8c532d"></path>
            <path d="M36.075,9.463c0.434,-0.258 0.807,-0.396 1.115,-0.391c0.377,0.005 0.647,0.163 0.835,0.446c0.205,0.306 0.313,0.759 0.357,1.315c0.026,0.323 0.031,0.638 0.018,0.947c-0.005,0.106 -0.012,0.21 -0.023,0.311c-0.03,0.283 -0.082,0.533 -0.133,0.768c-0.252,-0.363 -0.579,-0.812 -0.991,-1.335c-0.206,-0.262 -0.434,-0.542 -0.684,-0.839c-0.184,-0.218 -0.385,-0.449 -0.604,-0.69c0.026,-0.18 0.068,-0.368 0.11,-0.532z" fill="#8a502b"></path>
            <path d="M36.068,9.504c0.432,-0.256 0.802,-0.392 1.107,-0.386c0.369,0.005 0.633,0.16 0.819,0.438c0.2,0.3 0.308,0.743 0.353,1.288c0.026,0.314 0.033,0.622 0.022,0.927c-0.004,0.104 -0.011,0.205 -0.02,0.304c-0.027,0.275 -0.075,0.522 -0.122,0.755c-0.252,-0.362 -0.576,-0.806 -0.983,-1.321c-0.203,-0.258 -0.427,-0.533 -0.673,-0.824c-0.178,-0.211 -0.372,-0.434 -0.583,-0.666c0.017,-0.173 0.049,-0.355 0.08,-0.515z" fill="#874d29"></path>
            <path d="M36.06,9.546c0.43,-0.254 0.797,-0.387 1.098,-0.381c0.36,0.006 0.619,0.158 0.802,0.431c0.196,0.294 0.303,0.727 0.35,1.261c0.027,0.306 0.035,0.607 0.025,0.908c-0.003,0.101 -0.009,0.2 -0.018,0.298c-0.024,0.268 -0.068,0.511 -0.111,0.742c-0.252,-0.36 -0.573,-0.799 -0.974,-1.306c-0.2,-0.253 -0.421,-0.524 -0.662,-0.81c-0.172,-0.204 -0.359,-0.418 -0.561,-0.643c0.009,-0.169 0.031,-0.345 0.051,-0.5z" fill="#854a27"></path>
            <path d="M36.053,9.587c0.428,-0.252 0.792,-0.382 1.09,-0.377c0.352,0.006 0.605,0.155 0.785,0.424c0.192,0.287 0.299,0.71 0.346,1.234c0.027,0.297 0.037,0.592 0.029,0.888c-0.002,0.099 -0.008,0.196 -0.015,0.291c-0.021,0.261 -0.061,0.499 -0.1,0.728c-0.252,-0.359 -0.571,-0.793 -0.965,-1.291c-0.197,-0.249 -0.414,-0.515 -0.65,-0.796c-0.166,-0.197 -0.345,-0.403 -0.54,-0.619c-0.001,-0.161 0.01,-0.33 0.02,-0.482z" fill="#824825"></path>
            <path d="M36.046,9.628c0.426,-0.25 0.787,-0.378 1.082,-0.372c0.343,0.006 0.591,0.152 0.768,0.416c0.188,0.281 0.294,0.694 0.343,1.207c0.027,0.288 0.038,0.577 0.033,0.868c-0.002,0.096 -0.006,0.191 -0.013,0.285c-0.018,0.254 -0.054,0.488 -0.089,0.715c-0.252,-0.357 -0.568,-0.786 -0.957,-1.277c-0.195,-0.245 -0.407,-0.506 -0.639,-0.781c-0.16,-0.189 -0.332,-0.388 -0.518,-0.595c-0.01,-0.156 -0.01,-0.318 -0.01,-0.466z" fill="#7f4523"></path>
            <path d="M36.038,9.669c0.425,-0.247 0.782,-0.373 1.074,-0.367c0.335,0.006 0.578,0.149 0.752,0.409c0.184,0.274 0.289,0.678 0.339,1.18c0.028,0.279 0.04,0.561 0.036,0.849c-0.001,0.094 -0.005,0.186 -0.01,0.278c-0.015,0.246 -0.047,0.477 -0.078,0.702c-0.251,-0.356 -0.565,-0.78 -0.948,-1.262c-0.192,-0.241 -0.401,-0.497 -0.628,-0.767c-0.154,-0.182 -0.319,-0.373 -0.497,-0.571c-0.019,-0.151 -0.028,-0.307 -0.04,-0.451z" fill="#7d4221"></path>
            <path d="M36.031,9.711c0.423,-0.245 0.777,-0.369 1.065,-0.363c0.326,0.006 0.564,0.146 0.735,0.401c0.179,0.268 0.284,0.661 0.335,1.153c0.028,0.27 0.042,0.546 0.04,0.829c0,0.091 -0.003,0.182 -0.008,0.272c-0.012,0.239 -0.04,0.466 -0.067,0.689c-0.251,-0.355 -0.562,-0.773 -0.939,-1.247c-0.189,-0.237 -0.394,-0.488 -0.617,-0.753c-0.147,-0.175 -0.306,-0.358 -0.475,-0.547c-0.027,-0.145 -0.047,-0.295 -0.069,-0.434z" fill="#7a3f1f"></path>
            <path d="M36.024,9.752c0.421,-0.243 0.772,-0.364 1.057,-0.358c0.318,0.006 0.55,0.144 0.718,0.394c0.175,0.261 0.279,0.645 0.332,1.126c0.029,0.261 0.043,0.531 0.044,0.81c0,0.089 -0.002,0.177 -0.005,0.265c-0.01,0.232 -0.033,0.454 -0.056,0.676c-0.251,-0.353 -0.559,-0.767 -0.931,-1.233c-0.186,-0.233 -0.387,-0.479 -0.605,-0.738c-0.141,-0.168 -0.292,-0.342 -0.453,-0.524c-0.038,-0.139 -0.069,-0.283 -0.101,-0.418z" fill="#783d1d"></path>
            <path d="M36.017,9.793c0.419,-0.241 0.767,-0.359 1.049,-0.353c0.309,0.006 0.536,0.141 0.701,0.386c0.171,0.255 0.274,0.629 0.328,1.099c0.029,0.253 0.045,0.516 0.047,0.79c0.001,0.086 0,0.172 -0.003,0.259c-0.007,0.224 -0.026,0.443 -0.045,0.662c-0.251,-0.352 -0.557,-0.76 -0.922,-1.218c-0.183,-0.229 -0.381,-0.471 -0.594,-0.724c-0.135,-0.16 -0.279,-0.327 -0.432,-0.5c-0.046,-0.132 -0.087,-0.27 -0.129,-0.401z" fill="#753a1b"></path>
            <path d="M36.009,9.835c0.417,-0.239 0.762,-0.355 1.041,-0.348c0.3,0.006 0.523,0.138 0.685,0.379c0.167,0.248 0.269,0.613 0.324,1.072c0.029,0.244 0.046,0.501 0.051,0.771c0.001,0.084 0.001,0.168 0,0.252c-0.004,0.217 -0.019,0.432 -0.034,0.649c-0.251,-0.351 -0.554,-0.754 -0.913,-1.204c-0.18,-0.225 -0.374,-0.462 -0.583,-0.71c-0.129,-0.153 -0.266,-0.312 -0.41,-0.476c-0.056,-0.127 -0.107,-0.259 -0.161,-0.385z" fill="#72371a"></path>
            <path d="M36.002,9.876c0.416,-0.237 0.757,-0.35 1.032,-0.344c0.292,0.007 0.509,0.135 0.668,0.372c0.163,0.242 0.264,0.596 0.321,1.045c0.03,0.235 0.048,0.485 0.055,0.751c0.002,0.081 0.003,0.163 0.002,0.246c-0.001,0.21 -0.011,0.421 -0.023,0.636c-0.251,-0.349 -0.551,-0.747 -0.905,-1.189c-0.177,-0.221 -0.367,-0.453 -0.571,-0.695c-0.123,-0.146 -0.252,-0.297 -0.389,-0.452c-0.064,-0.122 -0.126,-0.248 -0.19,-0.37z" fill="#703418"></path>
            <path d="M35.995,9.917c0.414,-0.234 0.751,-0.345 1.024,-0.339c0.283,0.007 0.495,0.132 0.651,0.364c0.158,0.235 0.259,0.58 0.317,1.018c0.03,0.226 0.049,0.47 0.058,0.732c0.003,0.079 0.004,0.158 0.005,0.239c0.001,0.203 -0.004,0.41 -0.012,0.623c-0.25,-0.348 -0.548,-0.741 -0.896,-1.174c-0.174,-0.217 -0.361,-0.444 -0.56,-0.681c-0.117,-0.139 -0.239,-0.282 -0.367,-0.428c-0.074,-0.116 -0.146,-0.236 -0.22,-0.354z" fill="#6d3216"></path>
            <path d="M35.987,9.959c0.412,-0.232 0.746,-0.341 1.016,-0.334c0.275,0.007 0.481,0.13 0.634,0.357c0.154,0.229 0.253,0.564 0.314,0.991c0.03,0.217 0.05,0.455 0.062,0.712c0.003,0.076 0.006,0.154 0.007,0.233c0.004,0.195 0.003,0.398 -0.001,0.61c-0.25,-0.346 -0.545,-0.734 -0.887,-1.16c-0.171,-0.213 -0.354,-0.435 -0.549,-0.667c-0.111,-0.132 -0.226,-0.266 -0.346,-0.404c-0.082,-0.111 -0.165,-0.225 -0.25,-0.338z" fill="#6b2f14"></path>
            <path d="M38,12.5c-0.25,-0.345 -0.542,-0.728 -0.879,-1.145c-0.168,-0.209 -0.347,-0.426 -0.537,-0.652c-0.19,-0.226 -0.392,-0.461 -0.604,-0.703c0.41,-0.23 0.741,-0.336 1.008,-0.329c0.266,0.007 0.468,0.127 0.618,0.349c0.15,0.222 0.249,0.548 0.31,0.964c0.031,0.208 0.052,0.44 0.065,0.693c0.013,0.253 0.019,0.528 0.019,0.823z" fill="#682c12"></path>
            <g>
                <path d="M7.005,9.71c0,3.02 0.85,4.33 1.62,4.89c0.07,-0.13 1.38,-2.6 4.99,-6.32c-1.12,-1.04 -2.71,-2.28 -3.94,-2.28c-2.14,0 -2.67,1.59 -2.67,3.71z" fill="url(#color-8)"></path>
                <path d="M8.005,10.31c0,1.035 0.113,1.82 0.283,2.428c0.17,0.608 0.397,1.037 0.627,1.362c0.26,-0.425 0.705,-1.105 1.381,-1.994c0.338,-0.444 0.734,-0.941 1.194,-1.484c0.46,-0.543 0.983,-1.132 1.575,-1.762c-0.435,-0.435 -0.947,-0.9 -1.464,-1.256c-0.517,-0.356 -1.036,-0.604 -1.486,-0.604c-1.69,0 -2.11,1.42 -2.11,3.31z" fill="#ffcc80"></path>
                <path d="M10.131,7.046c-0.754,0 -1.253,0.286 -1.573,0.772c-0.389,0.591 -0.515,1.477 -0.517,2.503c-0.001,0.713 0.053,1.306 0.142,1.805c0.039,0.216 0.084,0.414 0.135,0.597c0.167,0.6 0.39,1.026 0.616,1.349c0.26,-0.424 0.702,-1.098 1.373,-1.979c0.335,-0.44 0.727,-0.932 1.182,-1.47c0.453,-0.536 0.969,-1.117 1.554,-1.739c-0.426,-0.429 -0.928,-0.888 -1.434,-1.24c-0.515,-0.353 -1.031,-0.598 -1.478,-0.598z" fill="#fcc97e"></path>
                <path d="M10.146,7.092c-0.745,0 -1.239,0.283 -1.556,0.765c-0.385,0.584 -0.511,1.46 -0.513,2.476c-0.001,0.704 0.051,1.291 0.138,1.785c0.038,0.214 0.082,0.41 0.132,0.59c0.164,0.593 0.383,1.015 0.606,1.336c0.26,-0.422 0.699,-1.092 1.364,-1.964c0.332,-0.436 0.721,-0.923 1.171,-1.455c0.447,-0.529 0.956,-1.102 1.532,-1.715c-0.417,-0.424 -0.908,-0.876 -1.404,-1.224c-0.512,-0.352 -1.026,-0.594 -1.47,-0.594z" fill="#fac67c"></path>
                <path d="M10.162,7.138c-0.737,0 -1.225,0.281 -1.54,0.757c-0.381,0.578 -0.506,1.445 -0.509,2.45c-0.002,0.695 0.049,1.276 0.134,1.766c0.037,0.211 0.081,0.405 0.13,0.584c0.161,0.586 0.376,1.004 0.595,1.323c0.259,-0.421 0.697,-1.085 1.355,-1.95c0.329,-0.432 0.714,-0.914 1.16,-1.441c0.441,-0.521 0.943,-1.087 1.51,-1.691c-0.408,-0.418 -0.889,-0.864 -1.374,-1.208c-0.51,-0.35 -1.021,-0.59 -1.461,-0.59z" fill="#f7c47a"></path>
                <path d="M10.177,7.184c-0.728,0 -1.211,0.278 -1.523,0.75c-0.377,0.571 -0.501,1.428 -0.506,2.422c-0.002,0.686 0.047,1.261 0.131,1.746c0.036,0.209 0.079,0.4 0.127,0.577c0.158,0.579 0.369,0.993 0.584,1.31c0.259,-0.419 0.694,-1.079 1.347,-1.935c0.326,-0.428 0.707,-0.905 1.148,-1.427c0.435,-0.514 0.93,-1.072 1.489,-1.667c-0.399,-0.412 -0.869,-0.853 -1.343,-1.192c-0.509,-0.347 -1.016,-0.584 -1.454,-0.584z" fill="#f5c178"></path>
                <path d="M10.193,7.23c-0.72,0.001 -1.197,0.275 -1.506,0.743c-0.373,0.565 -0.497,1.411 -0.502,2.395c-0.003,0.677 0.045,1.245 0.127,1.727c0.036,0.206 0.078,0.396 0.124,0.571c0.155,0.571 0.362,0.981 0.573,1.296c0.259,-0.418 0.691,-1.072 1.338,-1.921c0.323,-0.424 0.701,-0.897 1.137,-1.412c0.429,-0.507 0.916,-1.056 1.467,-1.643c-0.39,-0.407 -0.85,-0.841 -1.313,-1.176c-0.507,-0.345 -1.011,-0.58 -1.445,-0.58z" fill="#f2be77"></path>
                <path d="M10.209,7.276c-0.711,0.001 -1.184,0.272 -1.49,0.735c-0.368,0.559 -0.492,1.396 -0.498,2.369c-0.003,0.668 0.044,1.23 0.124,1.707c0.035,0.204 0.076,0.391 0.122,0.564c0.152,0.564 0.355,0.97 0.562,1.283c0.259,-0.417 0.688,-1.066 1.329,-1.906c0.321,-0.42 0.694,-0.888 1.126,-1.398c0.423,-0.5 0.903,-1.041 1.446,-1.619c-0.381,-0.401 -0.83,-0.829 -1.283,-1.16c-0.507,-0.343 -1.007,-0.575 -1.438,-0.575z" fill="#efbb75"></path>
                <path d="M10.224,7.322c-0.702,0.001 -1.17,0.27 -1.472,0.728c-0.364,0.552 -0.487,1.379 -0.495,2.341c-0.004,0.66 0.041,1.215 0.12,1.688c0.034,0.201 0.074,0.387 0.119,0.558c0.148,0.557 0.348,0.959 0.551,1.27c0.259,-0.415 0.685,-1.059 1.321,-1.891c0.318,-0.416 0.687,-0.879 1.114,-1.384c0.417,-0.492 0.89,-1.026 1.424,-1.596c-0.372,-0.395 -0.811,-0.817 -1.253,-1.144c-0.504,-0.34 -1.001,-0.571 -1.429,-0.57z" fill="#edb973"></path>
                <path d="M10.24,7.368c-0.694,0.001 -1.156,0.267 -1.456,0.72c-0.36,0.545 -0.483,1.362 -0.491,2.314c-0.004,0.651 0.039,1.2 0.116,1.668c0.033,0.199 0.072,0.382 0.117,0.551c0.144,0.55 0.341,0.948 0.54,1.257c0.259,-0.414 0.683,-1.053 1.312,-1.877c0.315,-0.412 0.681,-0.87 1.103,-1.369c0.411,-0.485 0.876,-1.011 1.403,-1.572c-0.362,-0.39 -0.791,-0.805 -1.223,-1.127c-0.503,-0.338 -0.997,-0.566 -1.421,-0.565z" fill="#eab671"></path>
                <path d="M10.255,7.414c-0.685,0.001 -1.142,0.264 -1.439,0.713c-0.356,0.539 -0.478,1.347 -0.487,2.288c-0.005,0.642 0.037,1.185 0.113,1.649c0.032,0.196 0.071,0.377 0.114,0.545c0.141,0.543 0.334,0.937 0.529,1.244c0.258,-0.413 0.68,-1.046 1.303,-1.862c0.312,-0.408 0.674,-0.861 1.092,-1.355c0.404,-0.478 0.863,-0.996 1.381,-1.548c-0.353,-0.384 -0.772,-0.793 -1.193,-1.111c-0.501,-0.338 -0.991,-0.564 -1.413,-0.563z" fill="#e8b36f"></path>
                <path d="M10.271,7.46c-0.677,0.002 -1.129,0.261 -1.422,0.706c-0.352,0.533 -0.473,1.33 -0.484,2.26c-0.005,0.633 0.035,1.17 0.109,1.629c0.031,0.194 0.069,0.373 0.112,0.538c0.138,0.536 0.327,0.925 0.518,1.23c0.258,-0.411 0.677,-1.04 1.295,-1.847c0.309,-0.404 0.667,-0.852 1.08,-1.341c0.398,-0.471 0.85,-0.98 1.359,-1.524c-0.344,-0.378 -0.752,-0.782 -1.163,-1.095c-0.498,-0.334 -0.986,-0.557 -1.404,-0.556z" fill="#e5b06d"></path>
                <path d="M10.286,7.506c-0.668,0.002 -1.114,0.259 -1.405,0.699c-0.347,0.526 -0.469,1.314 -0.48,2.233c-0.006,0.624 0.033,1.154 0.105,1.61c0.03,0.191 0.067,0.368 0.109,0.532c0.135,0.528 0.32,0.914 0.507,1.217c0.258,-0.41 0.674,-1.033 1.286,-1.833c0.306,-0.4 0.661,-0.843 1.069,-1.326c0.392,-0.464 0.837,-0.965 1.338,-1.5c-0.335,-0.373 -0.733,-0.77 -1.133,-1.079c-0.496,-0.333 -0.98,-0.554 -1.396,-0.553z" fill="#e2ae6b"></path>
                <path d="M10.302,7.553c-0.66,0.001 -1.101,0.255 -1.389,0.691c-0.343,0.519 -0.464,1.297 -0.476,2.206c-0.006,0.615 0.031,1.139 0.102,1.59c0.03,0.189 0.066,0.363 0.107,0.525c0.132,0.521 0.313,0.903 0.496,1.204c0.258,-0.408 0.671,-1.027 1.277,-1.818c0.303,-0.396 0.654,-0.834 1.058,-1.312c0.386,-0.456 0.823,-0.95 1.316,-1.476c-0.326,-0.367 -0.713,-0.758 -1.103,-1.063c-0.495,-0.331 -0.976,-0.549 -1.388,-0.547z" fill="#e0ab69"></path>
                <path d="M10.318,7.599c-0.652,0.001 -1.088,0.252 -1.372,0.683c-0.339,0.513 -0.459,1.281 -0.473,2.179c-0.007,0.606 0.029,1.124 0.098,1.571c0.029,0.186 0.064,0.359 0.104,0.519c0.128,0.514 0.306,0.892 0.485,1.191c0.258,-0.407 0.669,-1.02 1.269,-1.803c0.3,-0.392 0.647,-0.826 1.047,-1.297c0.38,-0.449 0.81,-0.935 1.295,-1.453c-0.317,-0.361 -0.694,-0.746 -1.073,-1.047c-0.494,-0.329 -0.972,-0.545 -1.38,-0.543z" fill="#dda867"></path>
                <path d="M10.333,7.645c-0.643,0.001 -1.073,0.249 -1.355,0.675c-0.335,0.507 -0.457,1.265 -0.469,2.152c-0.009,0.598 0.026,1.11 0.094,1.552c0.028,0.184 0.063,0.354 0.102,0.512c0.125,0.507 0.299,0.881 0.474,1.178c0.258,-0.406 0.666,-1.014 1.26,-1.789c0.297,-0.387 0.641,-0.817 1.035,-1.283c0.374,-0.442 0.797,-0.92 1.273,-1.429c-0.308,-0.356 -0.674,-0.734 -1.043,-1.031c-0.491,-0.326 -0.965,-0.539 -1.371,-0.537z" fill="#dba565"></path>
                <path d="M10.349,7.691c-0.634,0.001 -1.06,0.247 -1.339,0.668c-0.331,0.5 -0.452,1.248 -0.466,2.125c-0.009,0.589 0.025,1.094 0.091,1.532c0.027,0.181 0.061,0.349 0.099,0.506c0.122,0.5 0.292,0.869 0.463,1.164c0.257,-0.404 0.663,-1.007 1.251,-1.774c0.294,-0.383 0.634,-0.808 1.024,-1.269c0.368,-0.435 0.784,-0.904 1.252,-1.405c-0.299,-0.35 -0.655,-0.722 -1.013,-1.015c-0.489,-0.323 -0.96,-0.534 -1.362,-0.532z" fill="#d8a364"></path>
                <path d="M10.364,7.737c-0.625,0.002 -1.046,0.244 -1.321,0.661c-0.327,0.493 -0.448,1.232 -0.463,2.098c-0.01,0.58 0.023,1.079 0.087,1.512c0.026,0.179 0.059,0.345 0.097,0.499c0.119,0.493 0.285,0.859 0.452,1.152c0.257,-0.403 0.66,-1.001 1.243,-1.76c0.291,-0.379 0.627,-0.799 1.013,-1.254c0.362,-0.427 0.77,-0.889 1.23,-1.381c-0.29,-0.344 -0.635,-0.711 -0.983,-0.999c-0.488,-0.322 -0.955,-0.53 -1.355,-0.528z" fill="#d5a062"></path>
                <path d="M10.38,7.783c-0.617,0.002 -1.032,0.241 -1.305,0.653c-0.322,0.487 -0.443,1.216 -0.459,2.071c-0.01,0.572 0.021,1.064 0.084,1.493c0.026,0.176 0.058,0.34 0.094,0.493c0.116,0.485 0.278,0.847 0.441,1.138c0.257,-0.402 0.657,-0.994 1.234,-1.745c0.288,-0.375 0.621,-0.79 1.001,-1.24c0.356,-0.42 0.757,-0.874 1.208,-1.357c-0.281,-0.338 -0.616,-0.699 -0.953,-0.982c-0.484,-0.32 -0.949,-0.526 -1.345,-0.524z" fill="#d39d60"></path>
                <path d="M10.395,7.829c-0.608,0.002 -1.018,0.238 -1.288,0.646c-0.318,0.481 -0.438,1.199 -0.455,2.044c-0.011,0.562 0.019,1.048 0.08,1.473c0.025,0.174 0.056,0.335 0.091,0.486c0.113,0.478 0.271,0.836 0.43,1.125c0.257,-0.4 0.655,-0.988 1.225,-1.73c0.285,-0.371 0.614,-0.781 0.99,-1.226c0.349,-0.413 0.744,-0.859 1.187,-1.334c-0.272,-0.333 -0.596,-0.687 -0.923,-0.966c-0.482,-0.317 -0.944,-0.52 -1.337,-0.518z" fill="#d09a5e"></path>
                <path d="M10.411,7.875c-0.6,0.002 -1.005,0.236 -1.271,0.639c-0.314,0.474 -0.434,1.183 -0.451,2.017c-0.012,0.553 0.017,1.033 0.076,1.454c0.024,0.171 0.054,0.331 0.089,0.48c0.109,0.471 0.264,0.824 0.419,1.112c0.257,-0.399 0.652,-0.981 1.217,-1.716c0.282,-0.367 0.607,-0.772 0.979,-1.211c0.343,-0.406 0.73,-0.844 1.165,-1.31c-0.263,-0.327 -0.577,-0.675 -0.893,-0.95c-0.482,-0.316 -0.94,-0.517 -1.33,-0.515z" fill="#ce985c"></path>
                <path d="M10.426,7.921c-0.591,0.002 -0.99,0.233 -1.254,0.631c-0.31,0.468 -0.429,1.167 -0.448,1.99c-0.012,0.545 0.015,1.018 0.073,1.434c0.023,0.169 0.053,0.326 0.086,0.473c0.106,0.464 0.257,0.813 0.408,1.098c0.257,-0.397 0.649,-0.975 1.208,-1.701c0.28,-0.363 0.601,-0.763 0.967,-1.197c0.337,-0.399 0.717,-0.829 1.144,-1.286c-0.254,-0.321 -0.557,-0.663 -0.862,-0.934c-0.48,-0.312 -0.935,-0.51 -1.322,-0.508z" fill="#cb955a"></path>
                <path d="M10.442,7.967c-0.583,0.002 -0.977,0.23 -1.238,0.624c-0.305,0.461 -0.424,1.15 -0.444,1.963c-0.013,0.536 0.013,1.003 0.069,1.415c0.023,0.166 0.051,0.321 0.084,0.467c0.103,0.456 0.25,0.802 0.397,1.085c0.256,-0.396 0.646,-0.968 1.199,-1.686c0.277,-0.359 0.594,-0.755 0.956,-1.183c0.331,-0.391 0.704,-0.813 1.122,-1.262c-0.245,-0.316 -0.538,-0.651 -0.832,-0.918c-0.478,-0.311 -0.93,-0.508 -1.313,-0.505z" fill="#c89258"></path>
                <path d="M10.458,8.013c-0.575,0.003 -0.964,0.227 -1.221,0.616c-0.301,0.455 -0.42,1.134 -0.44,1.936c-0.013,0.527 0.011,0.987 0.065,1.395c0.022,0.164 0.049,0.317 0.081,0.46c0.1,0.449 0.243,0.791 0.386,1.072c0.256,-0.395 0.643,-0.962 1.191,-1.672c0.274,-0.355 0.587,-0.746 0.945,-1.168c0.325,-0.384 0.691,-0.798 1.101,-1.238c-0.235,-0.31 -0.518,-0.639 -0.802,-0.902c-0.478,-0.308 -0.926,-0.502 -1.306,-0.499z" fill="#c68f56"></path>
                <path d="M10.473,8.059c-0.566,0.003 -0.95,0.225 -1.204,0.609c-0.297,0.449 -0.415,1.118 -0.437,1.909c-0.014,0.518 0.009,0.972 0.062,1.376c0.021,0.161 0.048,0.312 0.079,0.454c0.097,0.442 0.236,0.78 0.375,1.059c0.256,-0.393 0.641,-0.955 1.182,-1.657c0.271,-0.351 0.581,-0.737 0.933,-1.154c0.319,-0.377 0.677,-0.783 1.079,-1.214c-0.226,-0.304 -0.499,-0.628 -0.772,-0.886c-0.475,-0.307 -0.92,-0.499 -1.297,-0.496z" fill="#c38d54"></path>
                <path d="M10.489,8.105c-0.557,0.003 -0.936,0.222 -1.188,0.602c-0.293,0.442 -0.411,1.101 -0.433,1.882c-0.015,0.509 0.007,0.957 0.058,1.356c0.02,0.159 0.046,0.308 0.076,0.447c0.094,0.435 0.229,0.768 0.364,1.045c0.256,-0.392 0.638,-0.949 1.173,-1.643c0.268,-0.347 0.574,-0.728 0.922,-1.14c0.313,-0.37 0.664,-0.768 1.057,-1.191c-0.217,-0.299 -0.479,-0.616 -0.742,-0.87c-0.471,-0.302 -0.913,-0.491 -1.287,-0.488z" fill="#c18a52"></path>
                <path d="M10.504,8.151c-0.548,0.003 -0.922,0.219 -1.17,0.594c-0.289,0.436 -0.406,1.085 -0.43,1.855c-0.015,0.5 0.005,0.942 0.054,1.337c0.019,0.156 0.045,0.303 0.074,0.441c0.091,0.428 0.222,0.757 0.353,1.032c0.256,-0.391 0.635,-0.942 1.165,-1.628c0.265,-0.343 0.567,-0.719 0.911,-1.125c0.307,-0.363 0.651,-0.753 1.036,-1.167c-0.208,-0.293 -0.46,-0.604 -0.712,-0.854c-0.471,-0.301 -0.91,-0.488 -1.281,-0.485z" fill="#be8751"></path>
                <path d="M10.52,8.197c-0.54,0.003 -0.908,0.216 -1.154,0.587c-0.285,0.429 -0.402,1.069 -0.426,1.828c-0.016,0.491 0.004,0.927 0.051,1.317c0.019,0.154 0.043,0.298 0.071,0.434c0.087,0.42 0.215,0.746 0.342,1.019c0.256,-0.389 0.632,-0.936 1.156,-1.613c0.262,-0.339 0.561,-0.71 0.899,-1.111c0.3,-0.355 0.637,-0.737 1.014,-1.143c-0.199,-0.287 -0.44,-0.592 -0.682,-0.838c-0.468,-0.299 -0.904,-0.483 -1.271,-0.48z" fill="#bb844f"></path>
                <path d="M10.535,8.243c-0.531,0.003 -0.894,0.214 -1.137,0.579c-0.28,0.423 -0.397,1.053 -0.422,1.801c-0.016,0.483 0.002,0.911 0.047,1.298c0.018,0.151 0.041,0.294 0.069,0.428c0.084,0.413 0.208,0.735 0.331,1.006c0.255,-0.388 0.629,-0.929 1.147,-1.599c0.259,-0.335 0.554,-0.701 0.888,-1.097c0.294,-0.348 0.624,-0.722 0.993,-1.119c-0.19,-0.282 -0.421,-0.58 -0.652,-0.821c-0.467,-0.297 -0.899,-0.479 -1.264,-0.476z" fill="#b9824d"></path>
                <path d="M10.551,8.289c-0.523,0.004 -0.881,0.211 -1.121,0.572c-0.276,0.416 -0.392,1.036 -0.419,1.774c-0.017,0.474 0,0.896 0.044,1.278c0.017,0.149 0.04,0.289 0.066,0.421c0.081,0.406 0.201,0.724 0.32,0.993c0.255,-0.386 0.627,-0.923 1.139,-1.584c0.256,-0.331 0.547,-0.692 0.877,-1.082c0.288,-0.341 0.611,-0.707 0.971,-1.095c-0.181,-0.276 -0.401,-0.568 -0.622,-0.805c-0.465,-0.296 -0.894,-0.475 -1.255,-0.472z" fill="#b67f4b"></path>
                <path d="M10.566,8.335c-0.514,0.004 -0.866,0.208 -1.103,0.565c-0.272,0.41 -0.388,1.02 -0.415,1.747c-0.017,0.465 -0.002,0.881 0.04,1.259c0.016,0.146 0.038,0.284 0.064,0.415c0.078,0.399 0.194,0.712 0.309,0.979c0.255,-0.385 0.624,-0.916 1.13,-1.569c0.253,-0.327 0.541,-0.684 0.865,-1.068c0.282,-0.334 0.598,-0.692 0.95,-1.071c-0.172,-0.27 -0.382,-0.557 -0.592,-0.789c-0.464,-0.294 -0.889,-0.471 -1.248,-0.468z" fill="#b37c49"></path>
                <path d="M10.582,8.381c-0.506,0.004 -0.853,0.205 -1.087,0.557c-0.268,0.403 -0.383,1.004 -0.411,1.72c-0.018,0.456 -0.004,0.866 0.036,1.239c0.016,0.144 0.036,0.28 0.061,0.408c0.075,0.391 0.187,0.701 0.298,0.966c0.255,-0.384 0.621,-0.91 1.121,-1.555c0.25,-0.323 0.534,-0.675 0.854,-1.054c0.276,-0.326 0.584,-0.677 0.928,-1.048c-0.163,-0.265 -0.362,-0.545 -0.562,-0.773c-0.461,-0.289 -0.883,-0.463 -1.238,-0.46z" fill="#b17947"></path>
                <path d="M10.598,8.427c-0.498,0.004 -0.84,0.203 -1.071,0.55c-0.263,0.397 -0.378,0.988 -0.407,1.693c-0.019,0.447 -0.006,0.851 0.033,1.22c0.015,0.141 0.035,0.275 0.059,0.402c0.072,0.384 0.18,0.69 0.287,0.953c0.255,-0.382 0.618,-0.903 1.113,-1.54c0.247,-0.318 0.527,-0.666 0.843,-1.039c0.27,-0.319 0.571,-0.661 0.906,-1.024c-0.154,-0.259 -0.343,-0.533 -0.532,-0.757c-0.46,-0.289 -0.88,-0.461 -1.231,-0.458z" fill="#ae7645"></path>
                <path d="M10.613,8.473c-0.489,0.004 -0.826,0.2 -1.053,0.542c-0.259,0.39 -0.374,0.971 -0.404,1.666c-0.019,0.438 -0.008,0.835 0.029,1.2c0.014,0.139 0.033,0.27 0.056,0.395c0.069,0.377 0.173,0.679 0.276,0.94c0.254,-0.381 0.615,-0.897 1.104,-1.525c0.244,-0.314 0.521,-0.657 0.832,-1.025c0.264,-0.312 0.558,-0.646 0.885,-1c-0.145,-0.253 -0.323,-0.521 -0.502,-0.741c-0.458,-0.286 -0.874,-0.455 -1.223,-0.452z" fill="#ac7443"></path>
                <path d="M10.629,8.519c-0.48,0.004 -0.812,0.197 -1.037,0.535c-0.255,0.384 -0.369,0.955 -0.401,1.639c-0.02,0.429 -0.01,0.82 0.025,1.181c0.013,0.136 0.032,0.266 0.053,0.389c0.066,0.37 0.166,0.668 0.265,0.927c0.254,-0.379 0.613,-0.89 1.095,-1.511c0.241,-0.31 0.514,-0.648 0.82,-1.011c0.258,-0.305 0.545,-0.631 0.863,-0.976c-0.136,-0.248 -0.304,-0.509 -0.472,-0.725c-0.453,-0.284 -0.866,-0.451 -1.211,-0.448z" fill="#a97141"></path>
                <path d="M10.644,8.566c-0.472,0.004 -0.798,0.194 -1.02,0.527c-0.25,0.377 -0.364,0.938 -0.397,1.612c-0.02,0.421 -0.012,0.805 0.022,1.161c0.013,0.134 0.03,0.261 0.051,0.383c0.063,0.362 0.159,0.656 0.254,0.913c0.254,-0.378 0.61,-0.884 1.087,-1.496c0.238,-0.306 0.507,-0.639 0.809,-0.996c0.251,-0.298 0.531,-0.616 0.842,-0.952c-0.127,-0.242 -0.284,-0.497 -0.442,-0.709c-0.454,-0.283 -0.863,-0.448 -1.206,-0.443z" fill="#a66e40"></path>
                <path d="M10.66,8.612c-0.463,0.004 -0.784,0.191 -1.003,0.52c-0.247,0.371 -0.36,0.922 -0.393,1.585c-0.021,0.412 -0.014,0.79 0.018,1.142c0.012,0.131 0.028,0.256 0.048,0.376c0.06,0.355 0.152,0.645 0.243,0.9c0.254,-0.377 0.607,-0.877 1.078,-1.482c0.236,-0.302 0.501,-0.63 0.798,-0.982c0.245,-0.29 0.518,-0.601 0.82,-0.929c-0.118,-0.236 -0.265,-0.486 -0.412,-0.693c-0.452,-0.279 -0.858,-0.442 -1.197,-0.437z" fill="#a46b3e"></path>
                <path d="M10.675,8.658c-0.454,0.004 -0.77,0.188 -0.986,0.513c-0.242,0.365 -0.355,0.906 -0.39,1.558c-0.021,0.403 -0.015,0.775 0.014,1.122c0.011,0.129 0.027,0.252 0.046,0.369c0.057,0.348 0.145,0.634 0.232,0.887c0.254,-0.375 0.604,-0.871 1.069,-1.467c0.233,-0.298 0.494,-0.621 0.786,-0.968c0.239,-0.283 0.505,-0.585 0.799,-0.905c-0.109,-0.231 -0.245,-0.474 -0.381,-0.676c-0.45,-0.278 -0.853,-0.438 -1.189,-0.433z" fill="#a1693c"></path>
                <path d="M10.691,8.704c-0.446,0.004 -0.757,0.186 -0.97,0.505c-0.238,0.358 -0.351,0.89 -0.386,1.531c-0.022,0.394 -0.017,0.759 0.011,1.103c0.01,0.126 0.025,0.247 0.043,0.363c0.054,0.341 0.138,0.623 0.221,0.874c0.254,-0.374 0.601,-0.864 1.061,-1.452c0.23,-0.294 0.487,-0.613 0.775,-0.953c0.233,-0.276 0.491,-0.57 0.777,-0.881c-0.099,-0.225 -0.225,-0.462 -0.351,-0.66c-0.449,-0.277 -0.848,-0.435 -1.181,-0.43z" fill="#9f663a"></path>
                <path d="M10.707,8.75c-0.437,0.005 -0.743,0.183 -0.953,0.498c-0.234,0.352 -0.346,0.873 -0.382,1.504c-0.022,0.385 -0.019,0.744 0.007,1.083c0.01,0.124 0.023,0.242 0.041,0.356c0.051,0.333 0.131,0.611 0.21,0.861c0.253,-0.373 0.599,-0.858 1.052,-1.438c0.227,-0.29 0.481,-0.604 0.764,-0.939c0.227,-0.269 0.478,-0.555 0.755,-0.857c-0.09,-0.219 -0.206,-0.45 -0.321,-0.644c-0.448,-0.274 -0.844,-0.429 -1.173,-0.424z" fill="#9c6338"></path>
                <path d="M10.722,8.796c-0.429,0.005 -0.729,0.18 -0.936,0.49c-0.23,0.345 -0.341,0.857 -0.379,1.477c-0.023,0.376 -0.021,0.729 0.004,1.064c0.009,0.121 0.022,0.238 0.038,0.35c0.048,0.326 0.124,0.6 0.199,0.847c0.253,-0.371 0.596,-0.851 1.043,-1.423c0.224,-0.286 0.474,-0.595 0.752,-0.925c0.221,-0.261 0.465,-0.54 0.734,-0.833c-0.081,-0.214 -0.186,-0.438 -0.291,-0.628c-0.444,-0.271 -0.837,-0.424 -1.164,-0.419z" fill="#996036"></path>
                <path d="M10.738,8.842c-0.42,0.005 -0.715,0.177 -0.919,0.483c-0.226,0.339 -0.337,0.841 -0.375,1.45c-0.023,0.368 -0.023,0.714 0,1.044c0.008,0.119 0.02,0.233 0.036,0.343c0.045,0.319 0.117,0.589 0.188,0.834c0.253,-0.37 0.593,-0.845 1.035,-1.408c0.221,-0.282 0.467,-0.586 0.741,-0.91c0.215,-0.254 0.452,-0.525 0.712,-0.809c-0.072,-0.208 -0.167,-0.426 -0.261,-0.612c-0.444,-0.27 -0.834,-0.42 -1.157,-0.415z" fill="#975e34"></path>
                <path d="M10.753,8.888c-0.412,0.005 -0.702,0.174 -0.902,0.476c-0.221,0.332 -0.332,0.824 -0.372,1.423c-0.024,0.359 -0.024,0.698 -0.004,1.025c0.007,0.116 0.019,0.228 0.033,0.337c0.042,0.312 0.11,0.578 0.177,0.821c0.253,-0.368 0.59,-0.838 1.026,-1.394c0.218,-0.278 0.461,-0.577 0.73,-0.896c0.209,-0.247 0.438,-0.509 0.691,-0.786c-0.063,-0.202 -0.147,-0.414 -0.231,-0.596c-0.441,-0.267 -0.828,-0.415 -1.148,-0.41z" fill="#945b32"></path>
                <path d="M10.769,8.934c-0.403,0.005 -0.688,0.172 -0.886,0.468c-0.217,0.326 -0.327,0.808 -0.368,1.396c-0.024,0.35 -0.026,0.683 -0.007,1.005c0.007,0.114 0.017,0.224 0.031,0.33c0.039,0.304 0.103,0.567 0.166,0.808c0.253,-0.367 0.587,-0.832 1.017,-1.379c0.215,-0.274 0.454,-0.568 0.718,-0.882c0.203,-0.24 0.425,-0.494 0.669,-0.762c-0.054,-0.197 -0.128,-0.403 -0.201,-0.58c-0.439,-0.264 -0.822,-0.409 -1.139,-0.404z" fill="#925830"></path>
                <path d="M10.784,8.98c-0.394,0.005 -0.674,0.169 -0.869,0.461c-0.213,0.319 -0.322,0.791 -0.364,1.369c-0.025,0.341 -0.028,0.668 -0.011,0.986c0.006,0.111 0.016,0.219 0.028,0.324c0.036,0.297 0.096,0.555 0.155,0.795c0.253,-0.366 0.585,-0.825 1.009,-1.365c0.212,-0.27 0.447,-0.559 0.707,-0.867c0.196,-0.233 0.412,-0.479 0.648,-0.738c-0.045,-0.191 -0.108,-0.391 -0.171,-0.564c-0.438,-0.263 -0.818,-0.406 -1.132,-0.401z" fill="#8f552e"></path>
                <path d="M10.8,9.026c-0.386,0.005 -0.66,0.166 -0.852,0.453c-0.209,0.313 -0.318,0.775 -0.361,1.342c-0.025,0.332 -0.03,0.653 -0.015,0.966c0.005,0.109 0.014,0.214 0.026,0.317c0.033,0.29 0.089,0.544 0.144,0.781c0.252,-0.364 0.582,-0.819 1,-1.35c0.209,-0.266 0.441,-0.55 0.696,-0.853c0.19,-0.225 0.399,-0.464 0.626,-0.714c-0.036,-0.185 -0.089,-0.379 -0.141,-0.548c-0.436,-0.259 -0.812,-0.399 -1.123,-0.394z" fill="#8c532d"></path>
                <path d="M10.815,9.072c-0.377,0.005 -0.647,0.163 -0.835,0.446c-0.205,0.306 -0.313,0.759 -0.357,1.315c-0.026,0.323 -0.031,0.638 -0.018,0.947c0.005,0.106 0.012,0.21 0.023,0.311c0.03,0.283 0.082,0.533 0.133,0.768c0.252,-0.363 0.579,-0.812 0.991,-1.335c0.206,-0.262 0.434,-0.542 0.684,-0.839c0.184,-0.218 0.385,-0.449 0.604,-0.69c-0.027,-0.18 -0.069,-0.367 -0.111,-0.532c-0.433,-0.258 -0.806,-0.396 -1.114,-0.391z" fill="#8a502b"></path>
                <path d="M10.831,9.118c-0.369,0.005 -0.633,0.16 -0.819,0.438c-0.2,0.3 -0.308,0.743 -0.353,1.288c-0.026,0.314 -0.033,0.622 -0.022,0.927c0.004,0.104 0.011,0.205 0.02,0.304c0.027,0.275 0.075,0.522 0.122,0.755c0.252,-0.362 0.576,-0.806 0.983,-1.321c0.203,-0.258 0.427,-0.533 0.673,-0.824c0.178,-0.211 0.372,-0.434 0.583,-0.666c-0.018,-0.174 -0.05,-0.355 -0.081,-0.515c-0.431,-0.256 -0.802,-0.391 -1.106,-0.386z" fill="#874d29"></path>
                <path d="M10.847,9.164c-0.36,0.006 -0.619,0.158 -0.802,0.431c-0.196,0.294 -0.303,0.727 -0.35,1.261c-0.027,0.306 -0.035,0.607 -0.025,0.908c0.003,0.101 0.009,0.2 0.018,0.298c0.024,0.268 0.068,0.511 0.111,0.742c0.252,-0.36 0.573,-0.799 0.974,-1.306c0.2,-0.253 0.421,-0.524 0.662,-0.81c0.172,-0.204 0.359,-0.418 0.561,-0.643c-0.009,-0.168 -0.03,-0.343 -0.051,-0.499c-0.43,-0.254 -0.797,-0.387 -1.098,-0.382z" fill="#854a27"></path>
                <path d="M10.862,9.21c-0.352,0.006 -0.605,0.155 -0.785,0.424c-0.192,0.287 -0.299,0.71 -0.346,1.234c-0.027,0.297 -0.037,0.592 -0.029,0.888c0.002,0.099 0.008,0.196 0.015,0.291c0.021,0.261 0.061,0.499 0.1,0.728c0.252,-0.359 0.571,-0.793 0.965,-1.291c0.197,-0.249 0.414,-0.515 0.65,-0.796c0.166,-0.197 0.345,-0.403 0.54,-0.619c0,-0.163 -0.011,-0.332 -0.021,-0.483c-0.427,-0.251 -0.791,-0.382 -1.089,-0.376z" fill="#824825"></path>
                <path d="M10.878,9.256c-0.343,0.006 -0.591,0.152 -0.768,0.416c-0.188,0.281 -0.294,0.694 -0.343,1.207c-0.027,0.288 -0.038,0.577 -0.033,0.868c0.002,0.096 0.006,0.191 0.013,0.285c0.018,0.254 0.054,0.488 0.089,0.715c0.252,-0.357 0.568,-0.786 0.957,-1.277c0.195,-0.245 0.407,-0.506 0.639,-0.781c0.16,-0.189 0.332,-0.388 0.518,-0.595c0.009,-0.157 0.009,-0.32 0.009,-0.467c-0.426,-0.248 -0.787,-0.377 -1.081,-0.371z" fill="#7f4523"></path>
                <path d="M10.893,9.302c-0.335,0.006 -0.578,0.149 -0.752,0.409c-0.184,0.274 -0.289,0.678 -0.339,1.18c-0.028,0.279 -0.04,0.561 -0.036,0.849c0.001,0.094 0.005,0.186 0.01,0.278c0.015,0.246 0.047,0.477 0.078,0.702c0.251,-0.356 0.565,-0.78 0.948,-1.262c0.192,-0.241 0.401,-0.497 0.628,-0.767c0.154,-0.182 0.319,-0.373 0.497,-0.571c0.018,-0.151 0.028,-0.308 0.039,-0.451c-0.424,-0.247 -0.781,-0.373 -1.073,-0.367z" fill="#7d4221"></path>
                <path d="M10.909,9.348c-0.326,0.006 -0.564,0.146 -0.735,0.401c-0.179,0.268 -0.284,0.661 -0.335,1.153c-0.028,0.27 -0.042,0.546 -0.04,0.829c0,0.091 0.003,0.182 0.008,0.272c0.012,0.239 0.04,0.466 0.067,0.689c0.251,-0.355 0.562,-0.773 0.939,-1.247c0.189,-0.237 0.394,-0.488 0.617,-0.753c0.147,-0.175 0.306,-0.358 0.475,-0.547c0.027,-0.145 0.047,-0.295 0.069,-0.434c-0.423,-0.245 -0.777,-0.369 -1.065,-0.363z" fill="#7a3f1f"></path>
                <path d="M10.924,9.394c-0.318,0.006 -0.55,0.144 -0.718,0.394c-0.175,0.261 -0.279,0.645 -0.332,1.126c-0.029,0.261 -0.043,0.531 -0.044,0.81c0,0.089 0.002,0.177 0.005,0.265c0.01,0.232 0.033,0.454 0.056,0.676c0.251,-0.353 0.559,-0.767 0.931,-1.233c0.186,-0.233 0.387,-0.479 0.605,-0.738c0.141,-0.168 0.292,-0.342 0.453,-0.524c0.037,-0.14 0.067,-0.284 0.099,-0.419c-0.419,-0.242 -0.769,-0.363 -1.055,-0.357z" fill="#783d1d"></path>
                <path d="M10.94,9.44c-0.309,0.006 -0.536,0.141 -0.701,0.386c-0.171,0.255 -0.274,0.629 -0.328,1.099c-0.029,0.253 -0.045,0.516 -0.047,0.79c-0.001,0.086 0,0.172 0.003,0.259c0.007,0.224 0.026,0.443 0.045,0.662c0.251,-0.352 0.557,-0.76 0.922,-1.218c0.183,-0.229 0.381,-0.471 0.594,-0.724c0.135,-0.16 0.279,-0.327 0.432,-0.5c0.046,-0.134 0.087,-0.272 0.13,-0.403c-0.42,-0.238 -0.768,-0.357 -1.05,-0.351z" fill="#753a1b"></path>
                <path d="M10.955,9.486c-0.3,0.006 -0.523,0.138 -0.685,0.379c-0.167,0.248 -0.269,0.613 -0.324,1.072c-0.029,0.244 -0.046,0.501 -0.051,0.771c-0.001,0.084 -0.001,0.168 0,0.252c0.005,0.218 0.019,0.433 0.035,0.65c0.251,-0.351 0.554,-0.754 0.913,-1.204c0.18,-0.225 0.374,-0.462 0.583,-0.71c0.129,-0.153 0.266,-0.312 0.41,-0.476c0.055,-0.128 0.106,-0.261 0.16,-0.387c-0.417,-0.237 -0.762,-0.353 -1.041,-0.347z" fill="#72371a"></path>
                <path d="M10.971,9.532c-0.292,0.007 -0.509,0.135 -0.668,0.372c-0.163,0.242 -0.264,0.596 -0.321,1.045c-0.03,0.235 -0.048,0.485 -0.055,0.751c-0.002,0.081 -0.003,0.163 -0.002,0.246c0.001,0.21 0.011,0.421 0.023,0.636c0.251,-0.349 0.551,-0.747 0.905,-1.189c0.177,-0.221 0.367,-0.453 0.571,-0.695c0.123,-0.146 0.252,-0.297 0.389,-0.452c0.064,-0.123 0.126,-0.249 0.19,-0.37c-0.415,-0.236 -0.756,-0.35 -1.032,-0.344z" fill="#703418"></path>
                <path d="M10.987,9.579c-0.283,0.007 -0.495,0.132 -0.651,0.364c-0.158,0.235 -0.259,0.58 -0.317,1.018c-0.03,0.226 -0.049,0.47 -0.058,0.732c-0.003,0.079 -0.004,0.158 -0.005,0.239c-0.001,0.203 0.004,0.41 0.012,0.623c0.25,-0.348 0.548,-0.741 0.896,-1.174c0.174,-0.217 0.361,-0.444 0.56,-0.681c0.117,-0.139 0.239,-0.282 0.367,-0.428c0.073,-0.117 0.145,-0.237 0.22,-0.354c-0.414,-0.235 -0.752,-0.346 -1.024,-0.339z" fill="#6d3216"></path>
                <path d="M11.002,9.625c-0.275,0.007 -0.481,0.13 -0.634,0.357c-0.154,0.229 -0.253,0.564 -0.314,0.991c-0.03,0.217 -0.05,0.455 -0.062,0.712c-0.003,0.076 -0.006,0.154 -0.007,0.233c-0.004,0.195 -0.003,0.398 0.001,0.61c0.25,-0.346 0.545,-0.734 0.887,-1.16c0.171,-0.213 0.354,-0.435 0.549,-0.667c0.111,-0.132 0.226,-0.266 0.346,-0.404c0.082,-0.111 0.165,-0.225 0.25,-0.338c-0.412,-0.233 -0.746,-0.341 -1.016,-0.334z" fill="#6b2f14"></path>
                <path d="M10.005,12.5c0.25,-0.345 0.542,-0.728 0.879,-1.145c0.168,-0.209 0.347,-0.426 0.537,-0.652c0.19,-0.226 0.391,-0.46 0.604,-0.703c-0.41,-0.23 -0.741,-0.336 -1.008,-0.329c-0.267,0.007 -0.467,0.126 -0.617,0.349c-0.15,0.223 -0.249,0.548 -0.31,0.964c-0.031,0.208 -0.052,0.44 -0.065,0.693c-0.014,0.253 -0.02,0.528 -0.02,0.823z" fill="#682c12"></path>
            </g>
            <path d="M24,11.981c-1.016,0 -2.577,-0.981 -4,-0.981c-3.667,0 -7,5.886 -7,8.83c0,3.924 3.665,14.898 8.25,17.776c0.795,0.499 4.664,0.551 5.5,0c4.53,-2.984 8.25,-13.852 8.25,-17.776c0,-2.943 -3.333,-8.83 -7,-8.83c-1.449,0 -2.968,0.981 -4,0.981z" fill="url(#color-9)"></path>
            <path d="M24,11.981c-1.016,0 -2.577,-0.981 -4,-0.981c-3.667,0 -7,5.886 -7,8.83c0,3.924 3.665,14.898 8.25,17.776c0.795,0.499 4.664,0.551 5.5,0c4.53,-2.984 8.25,-13.852 8.25,-17.776c0,-2.943 -3.333,-8.83 -7,-8.83c-1.449,0 -2.968,0.981 -4,0.981z" fill="url(#color-10)"></path>
            <path d="M24,11.981c-1.016,0 -2.577,-0.981 -4,-0.981c-3.667,0 -7,5.886 -7,8.83c0,3.924 3.665,14.898 8.25,17.776c0.795,0.499 4.664,0.551 5.5,0c4.53,-2.984 8.25,-13.852 8.25,-17.776c0,-2.943 -3.333,-8.83 -7,-8.83c-1.449,0 -2.968,0.981 -4,0.981z" fill="url(#color-11)"></path>
            <path d="M24,11.981c-1.016,0 -2.577,-0.981 -4,-0.981c-3.667,0 -7,5.886 -7,8.83c0,3.924 3.665,14.898 8.25,17.776c0.795,0.499 4.664,0.551 5.5,0c4.53,-2.984 8.25,-13.852 8.25,-17.776c0,-2.943 -3.333,-8.83 -7,-8.83c-1.449,0 -2.968,0.981 -4,0.981z" fill="url(#color-12)"></path>
            <g>
                <path d="M30.993,32.767c0,0 2.637,-5.592 3.507,-9.3c0,0 -1.5,-4.467 -4.5,-4.467c-3,0 -3,3.225 -3,4c0.007,0.42 0,1.5 0,2z" fill="url(#color-13)"></path>
                <path d="M28.015,23c0,0 -0.24,-2.43 1.203,-2.901c1.442,-0.471 2.782,0.893 2.782,0.893c0,0 -1.417,1.785 -3.349,1.587z" fill="#020102"></path>
                <path d="M30.71,20.92c0,0.6 -0.48,1.08 -1.08,1.08c-0.6,0 -1.08,-0.48 -1.08,-1.08c0,-0.16 0.03,-0.31 0.1,-0.45c0.15,-0.16 0.34,-0.29 0.57,-0.37c0.36,-0.12 0.71,-0.12 1.04,-0.06c0.27,0.19 0.45,0.51 0.45,0.88z" fill="#845828"></path>
                <circle cx="29.63" cy="21" r="0.29" fill="#1a1a1a"></circle>
            </g>
            <g>
                <path d="M21.04,25c0,-0.5 -0.007,-1.58 0,-2c0,-0.775 0,-4 -3,-4c-3,0 -4.5,4.467 -4.5,4.467c0.871,3.708 3.507,9.3 3.507,9.3z" fill="url(#color-14)"></path>
                <path d="M19.985,23c0,0 0.24,-2.43 -1.203,-2.901c-1.442,-0.471 -2.782,0.893 -2.782,0.893c0,0 1.417,1.785 3.349,1.587z" fill="#020102"></path>
                <path d="M17.29,20.92c0,0.6 0.48,1.08 1.08,1.08c0.6,0 1.08,-0.48 1.08,-1.08c0,-0.16 -0.03,-0.31 -0.1,-0.45c-0.15,-0.16 -0.34,-0.29 -0.57,-0.37c-0.36,-0.12 -0.71,-0.12 -1.04,-0.06c-0.27,0.19 -0.45,0.51 -0.45,0.88z" fill="#845828"></path>
                <circle cx="18.37" cy="21" r="0.29" fill="#1a1a1a"></circle>
            </g>
            <g>
                <circle cx="24" cy="34" r="5" fill="#ede1d6"></circle>
                <circle cx="24" cy="34" r="5" fill="url(#color-15)"></circle>
                <circle cx="24" cy="34" r="5" fill="url(#color-16)"></circle>
            </g>
            <path d="M27,23h-6c0,2 -4,6 -4,10c0,2 1.34,4 3,4c1.66,0 4,-1.221 4,-3c0,1.779 2.34,3 4,3c1.66,0 3,-2 3,-4c0,-4 -4,-8 -4,-10z" fill="#ffcc80"></path>
            <path d="M24,23h-3c0,2 -4,6 -4,10c0,2 1.34,4 3,4c1.66,0 4,-1.221 4,-3c0,0 0,-9 0,-11z" fill="url(#color-17)"></path>
            <path d="M24,23h3c0,2 4,6 4,10c0,2 -1.34,4 -3,4c-1.66,0 -4,-1.221 -4,-3c0,0 0,-9 0,-11z" fill="url(#color-18)"></path>
            <path d="M28,29.693c-3.712,2.896 -4.319,2.896 -7.971,0c0,0 -3.029,0.307 -3.029,3.307c0,2 1.34,4 3,4c1.66,0 4,-1.221 4,-3c0,1.779 2.34,3 4,3c1.66,0 3,-2 3,-4c0,-3 -3,-3.307 -3,-3.307z" fill="url(#color-19)"></path>
            <path d="M23.998,34c1.139,-2 3.423,-4 2.277,-4c-0.366,0 -0.73,0.04 -1.056,0.095c-0.805,0.136 -1.634,0.136 -2.44,0c-0.326,-0.055 -0.691,-0.095 -1.058,-0.095c-1.142,0 1.138,2 2.277,4z" fill="#7f3f26"></path>
            <path d="M28,29.693c0,0.686 -2.65,2.934 -2.906,2.709c-0.256,-0.225 -0.393,-0.438 -0.393,-0.781c0,-0.686 0.634,-1.243 1.415,-1.243c0.142,0 0.28,0.018 0.409,0.053c0.583,0.154 1.475,-1.3 1.475,-0.738z" fill="#130e15"></path>
            <path d="M20.029,29.693c0,0.686 2.65,2.934 2.906,2.709c0.256,-0.225 0.393,-0.438 0.393,-0.781c0,-0.686 -0.634,-1.243 -1.415,-1.243c-0.142,0 -0.28,0.018 -0.409,0.053c-0.583,0.154 -1.475,-1.3 -1.475,-0.738z" fill="#130e15"></path>
        </g>
    </g>
</svg>
