<svg version="1.1" xmlns="http://www.w3.org/2000/svg" xmlns:xlink="http://www.w3.org/1999/xlink" width="48px" height="48px" viewBox="0,0,256,256"><defs><radialGradient cx="24" cy="1.989" r="3.215" gradientUnits="userSpaceOnUse" id="color-1"><stop offset="0" stop-color="#2d7100"></stop><stop offset="1" stop-color="#afe35b"></stop></radialGradient><radialGradient cx="24" cy="46.011" r="3.215" gradientUnits="userSpaceOnUse" id="color-2"><stop offset="0" stop-color="#2d7100"></stop><stop offset="1" stop-color="#afe35b"></stop></radialGradient><radialGradient cx="46.011" cy="24" r="3.215" gradientUnits="userSpaceOnUse" id="color-3"><stop offset="0" stop-color="#2d7100"></stop><stop offset="1" stop-color="#afe35b"></stop></radialGradient><radialGradient cx="1.989" cy="24" r="3.215" gradientUnits="userSpaceOnUse" id="color-4"><stop offset="0" stop-color="#2d7100"></stop><stop offset="1" stop-color="#afe35b"></stop></radialGradient><radialGradient cx="13.53216" cy="5.86702" r="2.55" gradientUnits="userSpaceOnUse" id="color-5"><stop offset="0" stop-color="#2d7100"></stop><stop offset="1" stop-color="#afe35b"></stop></radialGradient><radialGradient cx="35.00663" cy="43.06524" r="3.215" gradientUnits="userSpaceOnUse" id="color-6"><stop offset="0" stop-color="#2d7100"></stop><stop offset="1" stop-color="#afe35b"></stop></radialGradient><radialGradient cx="41.35879" cy="14.13211" r="3.215" gradientUnits="userSpaceOnUse" id="color-7"><stop offset="0" stop-color="#2d7100"></stop><stop offset="1" stop-color="#afe35b"></stop></radialGradient><radialGradient cx="6.62886" cy="34.00433" r="3.215" gradientUnits="userSpaceOnUse" id="color-8"><stop offset="0" stop-color="#2d7100"></stop><stop offset="1" stop-color="#afe35b"></stop></radialGradient><radialGradient cx="4.93322" cy="12.99516" r="3.215" gradientUnits="userSpaceOnUse" id="color-9"><stop offset="0" stop-color="#2d7100"></stop><stop offset="1" stop-color="#afe35b"></stop></radialGradient><radialGradient cx="43.56632" cy="35.2609" r="3.934" gradientUnits="userSpaceOnUse" id="color-10"><stop offset="0" stop-color="#2d7100"></stop><stop offset="1" stop-color="#afe35b"></stop></radialGradient><radialGradient cx="35.00471" cy="4.93441" r="3.215" gradientUnits="userSpaceOnUse" id="color-11"><stop offset="0" stop-color="#2d7100"></stop><stop offset="1" stop-color="#afe35b"></stop></radialGradient><radialGradient cx="12.9971" cy="43.06624" r="3.215" gradientUnits="userSpaceOnUse" id="color-12"><stop offset="0" stop-color="#2d7100"></stop><stop offset="1" stop-color="#afe35b"></stop></radialGradient><radialGradient cx="24" cy="24" r="17" gradientUnits="userSpaceOnUse" id="color-13"><stop offset="0" stop-color="#2d7100"></stop><stop offset="0.287" stop-color="#368202"></stop><stop offset="0.459" stop-color="#3e8908"></stop><stop offset="0.6" stop-color="#4c9412"></stop><stop offset="0.725" stop-color="#60a421"></stop><stop offset="0.839" stop-color="#7bb935"></stop><stop offset="0.943" stop-color="#9ad24c"></stop><stop offset="1" stop-color="#afe35b"></stop></radialGradient><radialGradient cx="26" cy="20" r="4" gradientUnits="userSpaceOnUse" id="color-14"><stop offset="0" stop-color="#2d7100"></stop><stop offset="0.227" stop-color="#4a9311"></stop><stop offset="0.702" stop-color="#86c33d"></stop><stop offset="1" stop-color="#afe35b"></stop></radialGradient><radialGradient cx="17" cy="30" r="3" gradientUnits="userSpaceOnUse" id="color-15"><stop offset="0" stop-color="#2d7100"></stop><stop offset="0.227" stop-color="#4a9311"></stop><stop offset="0.702" stop-color="#86c33d"></stop><stop offset="1" stop-color="#afe35b"></stop></radialGradient><radialGradient cx="32" cy="31" r="3" gradientUnits="userSpaceOnUse" id="color-16"><stop offset="0" stop-color="#2d7100"></stop><stop offset="0.227" stop-color="#4a9311"></stop><stop offset="0.702" stop-color="#86c33d"></stop><stop offset="1" stop-color="#afe35b"></stop></radialGradient><radialGradient cx="36" cy="23" r="2" gradientUnits="userSpaceOnUse" id="color-17"><stop offset="0" stop-color="#2d7100"></stop><stop offset="0.227" stop-color="#4a9311"></stop><stop offset="0.702" stop-color="#86c33d"></stop><stop offset="1" stop-color="#afe35b"></stop></radialGradient><radialGradient cx="28" cy="11" r="2" gradientUnits="userSpaceOnUse" id="color-18"><stop offset="0" stop-color="#2d7100"></stop><stop offset="0.227" stop-color="#4a9311"></stop><stop offset="0.702" stop-color="#86c33d"></stop><stop offset="1" stop-color="#afe35b"></stop></radialGradient><radialGradient cx="24" cy="36.49842" r="3" gradientUnits="userSpaceOnUse" id="color-19"><stop offset="0" stop-color="#2d7100"></stop><stop offset="0.227" stop-color="#4a9311"></stop><stop offset="0.702" stop-color="#86c33d"></stop><stop offset="1" stop-color="#afe35b"></stop></radialGradient><radialGradient cx="34.99944" cy="13.00039" r="3.53" gradientUnits="userSpaceOnUse" id="color-20"><stop offset="0" stop-color="#2d7100"></stop><stop offset="0.227" stop-color="#4a9311"></stop><stop offset="0.702" stop-color="#86c33d"></stop><stop offset="1" stop-color="#afe35b"></stop></radialGradient><radialGradient cx="13" cy="21" r="3" gradientUnits="userSpaceOnUse" id="color-21"><stop offset="0" stop-color="#2d7100"></stop><stop offset="0.227" stop-color="#4a9311"></stop><stop offset="0.702" stop-color="#86c33d"></stop><stop offset="1" stop-color="#afe35b"></stop></radialGradient><radialGradient cx="19" cy="12" r="3" gradientUnits="userSpaceOnUse" id="color-22"><stop offset="0" stop-color="#2d7100"></stop><stop offset="0.227" stop-color="#4a9311"></stop><stop offset="0.702" stop-color="#86c33d"></stop><stop offset="1" stop-color="#afe35b"></stop></radialGradient></defs><g fill="none" fill-rule="nonzero" stroke="none" stroke-width="1" stroke-linecap="butt" stroke-linejoin="miter" stroke-miterlimit="10" stroke-dasharray="" stroke-dashoffset="0" font-family="none" font-weight="none" font-size="none" text-anchor="none" style="mix-blend-mode: normal"><g transform="scale(5.33333,5.33333)"><path d="M25,6.009c0,-1.015 1,-1.399 1,-2.397c0,-0.552 -0.422,-1.612 -2,-1.612c-1.578,0 -2,1.06 -2,1.612c0,0.998 1,1.388 1,2.388v1.2h2z" fill="url(#color-1)"></path><path d="M23,41.991c0,1.015 -1,1.399 -1,2.397c0,0.552 0.422,1.612 2,1.612c1.578,0 2,-1.06 2,-1.612c0,-0.998 -1,-1.388 -1,-2.388v-1.2h-2z" fill="url(#color-2)"></path><path d="M41.991,25c1.015,0 1.399,1 2.397,1c0.552,0 1.612,-0.422 1.612,-2c0,-1.578 -1.06,-2 -1.612,-2c-0.998,0 -1.388,1 -2.388,1h-1.2v2z" fill="url(#color-3)"></path><path d="M6.009,23c-1.015,0 -1.399,-1 -2.397,-1c-0.552,0 -1.612,0.422 -1.612,2c0,1.578 1.06,2 1.612,2c0.998,0 1.388,-1 2.388,-1h1.2v-2z" fill="url(#color-4)"></path><path d="M15.815,8.236c-0.403,-0.697 0.132,-1.358 -0.264,-2.043c-0.219,-0.379 -0.929,-0.94 -2.013,-0.314c-1.084,0.626 -0.954,1.521 -0.735,1.9c0.396,0.686 1.238,0.557 1.634,1.244l0.476,0.824l1.374,-0.793z" fill="url(#color-5)"></path><path d="M32.13,40.081c0.508,0.879 -0.167,1.712 0.332,2.576c0.276,0.478 1.171,1.185 2.538,0.396c1.367,-0.789 1.202,-1.918 0.926,-2.396c-0.499,-0.864 -1.56,-0.702 -2.06,-1.568l-0.6,-1.039l-1.732,1z" fill="url(#color-6)"></path><path d="M38.373,17.009c0.879,-0.508 1.712,0.167 2.576,-0.332c0.478,-0.276 1.185,-1.171 0.396,-2.538c-0.789,-1.366 -1.918,-1.202 -2.396,-0.926c-0.864,0.499 -0.702,1.56 -1.568,2.06l-1.039,0.6l1,1.732z" fill="url(#color-7)"></path><path d="M9.612,31.128c-0.88,0.508 -1.712,-0.167 -2.576,0.332c-0.478,0.276 -1.185,1.171 -0.396,2.538c0.789,1.366 1.918,1.202 2.396,0.926c0.864,-0.499 0.702,-1.56 1.568,-2.06l1.039,-0.6l-1,-1.732z" fill="url(#color-8)"></path><path d="M8.919,14.138c-0.879,-0.508 -0.712,-1.566 -1.576,-2.065c-0.478,-0.275 -1.607,-0.439 -2.396,0.927c-0.789,1.366 -0.082,2.262 0.396,2.538c0.864,0.499 1.702,-0.172 2.568,0.328l1.039,0.6l1,-1.732z" fill="url(#color-9)"></path><path d="M38.692,33.862c1.076,0.621 0.871,1.916 1.928,2.526c0.585,0.338 1.966,0.539 2.932,-1.133c0.966,-1.672 0.101,-2.768 -0.484,-3.106c-1.058,-0.611 -2.083,0.21 -3.143,-0.401l-1.272,-0.734l-1.224,2.12z" fill="url(#color-10)"></path><path d="M33.862,8.919c0.508,-0.879 1.566,-0.712 2.065,-1.576c0.276,-0.478 0.44,-1.607 -0.926,-2.396c-1.366,-0.789 -2.262,-0.082 -2.538,0.396c-0.499,0.864 0.172,1.702 -0.328,2.568l-0.6,1.039l1.732,1z" fill="url(#color-11)"></path><path d="M14.138,39.081c-0.508,0.879 -1.566,0.712 -2.065,1.576c-0.276,0.478 -0.44,1.607 0.926,2.396c1.366,0.789 2.262,0.082 2.538,-0.396c0.499,-0.864 -0.172,-1.702 0.328,-2.568l0.6,-1.039l-1.732,-1z" fill="url(#color-12)"></path><circle cx="24" cy="24" r="17" fill="url(#color-13)"></circle><circle cx="26" cy="20" r="4" fill="url(#color-14)"></circle><circle cx="17" cy="30" r="3" fill="url(#color-15)"></circle><circle cx="32" cy="31" r="3" fill="url(#color-16)"></circle><circle cx="36" cy="23" r="2" fill="url(#color-17)"></circle><circle cx="28" cy="11" r="2" fill="url(#color-18)"></circle><ellipse cx="24" cy="36.5" rx="3" ry="2.5" fill="url(#color-19)"></ellipse><path d="M37.496,15.496c-0.919,0.919 -2.781,0.546 -4.16,-0.832c-1.378,-1.378 -1.751,-3.241 -0.832,-4.16c0.919,-0.919 2.781,-0.546 4.16,0.832c1.378,1.379 1.751,3.241 0.832,4.16z" fill="url(#color-20)"></path><circle cx="13" cy="21" r="3" fill="url(#color-21)"></circle><circle cx="19" cy="12" r="3" fill="url(#color-22)"></circle></g></g></svg>
