<svg version="1.1" xmlns="http://www.w3.org/2000/svg" xmlns:xlink="http://www.w3.org/1999/xlink" width="48px" height="48px" viewBox="0,0,256,256"><defs><radialGradient cx="24.145" cy="19.999" r="21.823" gradientUnits="userSpaceOnUse" id="color-1"><stop offset="0" stop-color="#9c8573"></stop><stop offset="0.497" stop-color="#816c5b"></stop><stop offset="1" stop-color="#554232"></stop></radialGradient><radialGradient cx="33.212" cy="23.25759" r="6.2" gradientUnits="userSpaceOnUse" id="color-2"><stop offset="0" stop-color="#3b2d22"></stop><stop offset="1" stop-color="#3b2d22" stop-opacity="0"></stop></radialGradient><radialGradient cx="24.00124" cy="27.03266" r="8.70976" gradientUnits="userSpaceOnUse" id="color-3"><stop offset="0.623" stop-color="#3b2d22"></stop><stop offset="1" stop-color="#3b2d22" stop-opacity="0"></stop></radialGradient><radialGradient cx="14.788" cy="23.25759" r="6.2" gradientUnits="userSpaceOnUse" id="color-4"><stop offset="0" stop-color="#3b2d22"></stop><stop offset="1" stop-color="#3b2d22" stop-opacity="0"></stop></radialGradient><radialGradient cx="24.083" cy="23.49572" r="16.484" gradientUnits="userSpaceOnUse" id="color-5"><stop offset="0" stop-color="#ecddbe"></stop><stop offset="0.196" stop-color="#e8d8ba"></stop><stop offset="0.419" stop-color="#dbcaae"></stop><stop offset="0.657" stop-color="#c6b49b"></stop><stop offset="0.903" stop-color="#a99480"></stop><stop offset="1" stop-color="#9c8573"></stop></radialGradient><radialGradient cx="24.049" cy="28.827" r="9.202" gradientUnits="userSpaceOnUse" id="color-6"><stop offset="0" stop-color="#3b2d22" stop-opacity="0.6"></stop><stop offset="1" stop-color="#3b2d22" stop-opacity="0"></stop></radialGradient><radialGradient cx="24.067" cy="25.85456" r="4.054" gradientUnits="userSpaceOnUse" id="color-7"><stop offset="0" stop-color="#2e2b2a"></stop><stop offset="0.399" stop-color="#322f2e"></stop><stop offset="0.803" stop-color="#3e3a39"></stop><stop offset="1" stop-color="#474241"></stop></radialGradient><radialGradient cx="26.158" cy="28.417" r="0.622" gradientUnits="userSpaceOnUse" id="color-8"><stop offset="0" stop-color="#0f0f0f"></stop><stop offset="0.91" stop-color="#111111" stop-opacity="0.09"></stop><stop offset="1" stop-color="#121212" stop-opacity="0"></stop></radialGradient><radialGradient cx="21.842" cy="28.417" r="0.622" gradientUnits="userSpaceOnUse" id="color-9"><stop offset="0" stop-color="#0f0f0f"></stop><stop offset="0.91" stop-color="#111111" stop-opacity="0.09"></stop><stop offset="1" stop-color="#121212" stop-opacity="0"></stop></radialGradient><radialGradient cx="35.43669" cy="30.96831" r="13.12684" gradientUnits="userSpaceOnUse" id="color-10"><stop offset="0.495" stop-color="#a35e00" stop-opacity="0"></stop><stop offset="1" stop-color="#a35e00"></stop></radialGradient><radialGradient cx="12.56331" cy="30.96831" r="13.12684" gradientUnits="userSpaceOnUse" id="color-11"><stop offset="0.495" stop-color="#a35e00" stop-opacity="0"></stop><stop offset="1" stop-color="#a35e00"></stop></radialGradient><radialGradient cx="33.54819" cy="22.95381" r="1.60949" gradientUnits="userSpaceOnUse" id="color-12"><stop offset="0.318" stop-color="#000000"></stop><stop offset="0.328" stop-color="#040301"></stop><stop offset="0.337" stop-color="#100c03"></stop><stop offset="0.347" stop-color="#241b08"></stop><stop offset="0.356" stop-color="#41300e"></stop><stop offset="0.366" stop-color="#654a16"></stop><stop offset="0.369" stop-color="#755619"></stop><stop offset="0.5" stop-color="#6d5017"></stop><stop offset="0.705" stop-color="#563f12"></stop><stop offset="0.958" stop-color="#322409"></stop><stop offset="1" stop-color="#2b1f07"></stop></radialGradient><radialGradient cx="14.45181" cy="22.95381" r="1.60949" gradientUnits="userSpaceOnUse" id="color-13"><stop offset="0.318" stop-color="#000000"></stop><stop offset="0.328" stop-color="#040301"></stop><stop offset="0.337" stop-color="#100c03"></stop><stop offset="0.347" stop-color="#241b08"></stop><stop offset="0.356" stop-color="#41300e"></stop><stop offset="0.366" stop-color="#654a16"></stop><stop offset="0.369" stop-color="#755619"></stop><stop offset="0.5" stop-color="#6d5017"></stop><stop offset="0.705" stop-color="#563f12"></stop><stop offset="0.958" stop-color="#322409"></stop><stop offset="1" stop-color="#2b1f07"></stop></radialGradient></defs><g fill="none" fill-rule="nonzero" stroke="none" stroke-width="1" stroke-linecap="butt" stroke-linejoin="miter" stroke-miterlimit="10" stroke-dasharray="" stroke-dashoffset="0" font-family="none" font-weight="none" font-size="none" text-anchor="none" style="mix-blend-mode: normal"><g transform="scale(5.33333,5.33333)"><path d="M24,5c11.046,0 19,8.059 19,18c0,4.932 -0.436,16 -3,16c-6.894,0 -9.413,4 -16,4c-5.587,0 -8.106,-4 -16,-4c-2.564,0 -3,-11.068 -3,-16c0,-9.941 7.954,-18 19,-18z" fill="url(#color-1)"></path><circle cx="33.212" cy="23.257" r="5.893" fill="url(#color-2)"></circle><ellipse cx="24" cy="27.032" rx="8.278" ry="5.971" fill="url(#color-3)"></ellipse><circle cx="14.788" cy="23.257" r="5.893" fill="url(#color-4)"></circle><path d="M33.405,20c3.24,0 5.595,3 5.595,3c0,0 -1.025,-9.048 -15,-9.048c-13.975,0 -15,9.048 -15,9.048c0,0 2.355,-3 5.595,-3c1.388,0 3.702,1.123 3.702,3.495c0,4.339 -7.867,2.198 -7.867,7.115c0,4.454 7.983,6.999 13.57,6.999c5.587,0 13.57,-2.545 13.57,-6.999c0,-4.917 -7.867,-2.777 -7.867,-7.115c0,-2.372 2.314,-3.495 3.702,-3.495zM30.414,29c0.389,0 0.586,0.407 0.586,0.948c0,0.54 -2.085,3.052 -7,3.052c-4.915,0 -7,-2.512 -7,-3.052c0,-0.541 0.197,-0.948 0.586,-0.948c0.779,0 2.218,1.302 6.414,1.302c4.196,0 5.634,-1.302 6.414,-1.302z" fill="url(#color-5)"></path><path d="M24,19c-2.5,0 -4.5,6.742 -4.5,7.275c0,2.556 2.25,1.132 4.5,1.132c2.25,0 4.5,1.425 4.5,-1.132c0,-0.533 -2,-7.275 -4.5,-7.275z" fill="url(#color-6)"></path><path d="M24,27c-2.5,0 -4.5,-1.258 -4.5,-0.725c0,2.556 1.147,2.627 1.605,2.99c0.443,0.353 0.645,1.142 2.895,1.142c2.25,0 2.452,-0.789 2.895,-1.142c0.457,-0.363 1.605,-0.434 1.605,-2.99c0,-0.533 -2,0.725 -4.5,0.725z" fill="url(#color-7)"></path><path d="M26,29c-0.276,0 -0.5,-0.224 -0.5,-0.5c0,-0.276 0.224,-0.5 0.5,-0.5c0.138,0 0.71,-0.237 0.8,-0.146c0.091,0.09 -0.202,1.146 -0.8,1.146z" fill="url(#color-8)"></path><path d="M22,29c0.276,0 0.5,-0.224 0.5,-0.5c0,-0.276 -0.224,-0.5 -0.5,-0.5c-0.138,0 -0.71,-0.237 -0.8,-0.146c-0.091,0.09 0.202,1.146 0.8,1.146z" fill="url(#color-9)"></path><path d="M39.065,23.703c0,2.641 -2.283,4.783 -5.098,4.783c-2.815,0 -5.098,-2.483 -5.098,-5.124c0,-2.315 1.48,-4.442 4.699,-4.442c2.381,0 5.497,2.48 5.497,4.783z" fill="url(#color-10)"></path><path d="M8.935,23.703c0,2.641 2.283,4.783 5.098,4.783c2.815,0 5.098,-2.483 5.098,-5.124c0,-2.315 -1.48,-4.442 -4.699,-4.442c-2.381,0 -5.497,2.48 -5.497,4.783z" fill="url(#color-11)"></path><path d="M33.432,21.252c-0.768,0 -1.478,0.7 -1.703,1.193c-0.004,0.043 -0.01,0.093 -0.01,0.128c0,1.345 0.796,2.251 1.698,2.251c0.891,0 1.963,-0.856 1.963,-2.537c0,-0.186 -0.038,-0.322 -0.077,-0.456c-0.56,-0.49 -1.337,-0.579 -1.871,-0.579z" fill="url(#color-12)"></path><ellipse cx="33.077" cy="22.492" rx="0.405" ry="0.4" fill="#bababa"></ellipse><path d="M14.568,21.252c0.768,0 1.478,0.7 1.703,1.193c0.004,0.043 0.01,0.093 0.01,0.128c0,1.345 -0.796,2.251 -1.698,2.251c-0.891,0 -1.963,-0.856 -1.963,-2.537c0,-0.186 0.038,-0.322 0.077,-0.456c0.56,-0.49 1.337,-0.579 1.871,-0.579z" fill="url(#color-13)"></path><ellipse cx="14.021" cy="22.492" rx="0.405" ry="0.4" fill="#bababa"></ellipse></g></g></svg>
