<svg version="1.1" xmlns="http://www.w3.org/2000/svg" xmlns:xlink="http://www.w3.org/1999/xlink" width="48px" height="48px" viewBox="0,0,256,256"><g fill="none" fill-rule="nonzero" stroke="none" stroke-width="1" stroke-linecap="butt" stroke-linejoin="miter" stroke-miterlimit="10" stroke-dasharray="" stroke-dashoffset="0" font-family="none" font-weight="none" font-size="none" text-anchor="none" style="mix-blend-mode: normal"><g transform="scale(5.33333,5.33333)"><path d="M35,44c0,0 -5.875,-2 -10.875,-2c-5,0 -11.125,2 -11.125,2l-1,-12h25z" fill="#4e342e"></path><path d="M14.125,28c0,2.207 -1.789,4 -4,4c-2.207,0 -4,-1.793 -4,-4c0,-2.211 1.793,-4 4,-4c2.211,0 4,1.789 4,4M42.125,28c0,2.207 -1.789,4 -4,4c-2.207,0 -4,-1.793 -4,-4c0,-2.211 1.793,-4 4,-4c2.211,0 4,1.789 4,4" fill="#edbd28"></path><path d="M38.125,18c0,-12.727 -28,-8.285 -28,0v9c0,8.285 6.27,15 14,15c7.73,0 14,-6.715 14,-15z" fill="#ffca28"></path><path d="M32,26c0,1.105 -0.895,2 -2,2c-1.105,0 -2,-0.895 -2,-2c0,-1.105 0.895,-2 2,-2c1.105,0 2,0.895 2,2M20,26c0,-1.105 -0.895,-2 -2,-2c-1.105,0 -2,0.895 -2,2c0,1.105 0.895,2 2,2c1.105,0 2,-0.895 2,-2" fill="#784719"></path><path d="M24.125,4c-8.504,0 -21,5 -21.125,32l10,8v-20l17,-9l5,7l0.125,22l9.875,-8c0,-12 -0.418,-29 -14.875,-29l-2,-3z" fill="#795548"></path><path d="M19.125,35h10c0,0 -2,3 -5,3c-3,0 -5,-3 -5,-3z" fill="#ce8505"></path></g></g></svg>
