<svg version="1.1" xmlns="http://www.w3.org/2000/svg" xmlns:xlink="http://www.w3.org/1999/xlink" width="48px" height="48px" viewBox="0,0,256,256"><defs><radialGradient cx="19.351" cy="30.677" r="14.497" gradientUnits="userSpaceOnUse" id="color-1"><stop offset="0.517" stop-color="#113d56"></stop><stop offset="0.647" stop-color="#23536e"></stop><stop offset="0.884" stop-color="#4280a1"></stop><stop offset="1" stop-color="#4e91b5"></stop></radialGradient><radialGradient cx="19.278" cy="9.227" r="18.953" gradientUnits="userSpaceOnUse" id="color-2"><stop offset="0" stop-color="#4e91b5"></stop><stop offset="1" stop-color="#1c5d80"></stop></radialGradient><radialGradient cx="13.426" cy="27.326" r="7.888" gradientUnits="userSpaceOnUse" id="color-3"><stop offset="0.461" stop-color="#4e91b5"></stop><stop offset="1" stop-color="#1c5d80"></stop></radialGradient><radialGradient cx="24.019" cy="22.58" r="17.879" gradientUnits="userSpaceOnUse" id="color-4"><stop offset="0.171" stop-color="#7fb6d4"></stop><stop offset="0.357" stop-color="#78b0cf"></stop><stop offset="0.635" stop-color="#64a1c2"></stop><stop offset="0.968" stop-color="#4388ad"></stop><stop offset="1" stop-color="#3f85ab"></stop></radialGradient><radialGradient cx="26" cy="26" r="2" gradientUnits="userSpaceOnUse" id="color-5"><stop offset="0" stop-color="#4e91b5"></stop><stop offset="1" stop-color="#4e91b5" stop-opacity="0"></stop></radialGradient><radialGradient cx="25.99866" cy="25.50014" r="0.99951" gradientUnits="userSpaceOnUse" id="color-6"><stop offset="0.007" stop-color="#4d4d4d"></stop><stop offset="1" stop-color="#000000"></stop></radialGradient><linearGradient x1="32.51" y1="33.793" x2="16.623" y2="22.117" gradientUnits="userSpaceOnUse" id="color-7"><stop offset="0" stop-color="#3e82a6"></stop><stop offset="1" stop-color="#3e82a6" stop-opacity="0"></stop></linearGradient><linearGradient x1="31.85" y1="37.846" x2="8.166" y2="22.459" gradientUnits="userSpaceOnUse" id="color-8"><stop offset="0" stop-color="#3e82a6"></stop><stop offset="1" stop-color="#3e82a6" stop-opacity="0"></stop></linearGradient><linearGradient x1="35.977" y1="45.819" x2="32.754" y2="26.719" gradientUnits="userSpaceOnUse" id="color-9"><stop offset="0" stop-color="#4e91b5"></stop><stop offset="1" stop-color="#1c5d80"></stop></linearGradient></defs><g fill="none" fill-rule="nonzero" stroke="none" stroke-width="1" stroke-linecap="butt" stroke-linejoin="miter" stroke-miterlimit="10" stroke-dasharray="" stroke-dashoffset="0" font-family="none" font-weight="none" font-size="none" text-anchor="none" style="mix-blend-mode: normal"><g transform="scale(5.33333,5.33333)"><path d="M20.465,32.68c0,0 -0.317,2.724 -2.246,5.298c-2.997,3.999 -7.837,4.022 -7.837,4.022c0,0 -1.283,-3.606 0.856,-7.935c1.551,-3.139 7.282,-3.274 7.282,-3.274z" fill="url(#color-1)"></path><path d="M7,24.197c0,-6.573 3.213,-13.197 10,-13.197c7.015,0 8.53,6 12.664,6c4.571,0 3.661,-5.038 2.336,-6c0,0 -1.382,1 -4,1c-3.106,0 -5,-3 -5,-3c0,0 4.191,-3.564 7.726,-2.279c0.358,-2.556 2.104,-3.966 4.274,-4.721c0,0 2,1.438 2,3.524c0,1.994 -2.321,3.419 -2.321,3.419c0,0 6.321,4.091 6.321,13.057c0,8.944 -7.374,18 -16.717,18c-6.615,0 -12.528,-4.332 -15.416,-9.474c-2.358,-1.933 -2.881,-3.222 -1.867,-6.329z" fill="url(#color-2)"></path><path d="M13.066,20c7.009,0 7.744,8 14.934,8c-1.449,1.449 -2.177,5 -3.717,5c-6.615,0 -9.41,0.373 -15.416,-2.474c-4.43,-2.1 -4.069,-10.526 4.199,-10.526z" fill="url(#color-3)"></path><path d="M12.137,22c7.814,0 5.023,6 15.863,6c4.571,0 12.215,-3.99 10.326,-15.193c1.402,2.131 2.674,5.172 2.674,9.193c0,8.944 -7.374,18 -16.717,18c-6.615,0 -12.528,-4.332 -15.416,-9.474c-2.358,-1.933 -1.838,-8.526 3.27,-8.526z" fill="url(#color-4)"></path><ellipse cx="26" cy="26" rx="2" ry="1" fill="url(#color-5)"></ellipse><ellipse cx="26" cy="25.5" rx="1" ry="0.5" fill="url(#color-6)"></ellipse><path d="M16,27c0,0 3.226,7.087 11.499,7.087c6.205,0 9.491,-4.087 9.491,-4.087c0,0 -3.273,3 -9.426,3c-6.034,0 -11.564,-6 -11.564,-6z" fill="url(#color-7)"></path><path d="M11,26c0,0 3.745,12.087 14.499,12.087c7.885,0 9.491,-5.107 9.491,-5.107c0,0 -3.274,4.02 -9.427,4.02c-8.859,0 -14.563,-11 -14.563,-11z" fill="url(#color-8)"></path><path d="M29.5,27c0,0 -0.5,2.55 -0.5,6c0,7.726 6,10 6,10c0,0 4,-2.456 4,-8.493c0,-4.884 -6.588,-8.306 -6.588,-8.306z" fill="url(#color-9)"></path></g></g></svg>
