<svg xmlns="http://www.w3.org/2000/svg" viewBox="0 0 1000 1000">
    <path style="fill: #888888aa" d="M997.25 495.63c-27.3,-43.25 -58,-83 -98,-118.36 -37.56,-33 -78.53,-60.3 -121.8,-82l-71.7 86.5 1.14 0c59.2,27.3 109.26,63.7 149,111.5 3.4,4.55 5.7,8 1.14,13.66 -66,78.5 -153.64,125.2 -260.6,146.8 61.46,-36.4 96.74,-86.5 96.7,-152.5 0,-29.6 -6.8,-55.8 -20.5,-79.66l-282.24 339.15c65,11.4 133.15,11.4 204.85,0 177.54,-26.2 311.8,-110.4 400.6,-253.8 2.3,-3.4 2.3,-8 1.14,-11.4l0 0zm-248 -393.8l-119.5 144.5c-43.25,-9 -86.5,-13.65 -133.15,-14.8 -18.2,1.14 -38.7,2.3 -59.2,3.4 -11.4,1.14 -22.8,3.4 -33,4.55 -177.54,28.45 -313,112.7 -400.6,255 -2.3,3.4 -2.3,9 0,11.4 32,53.5 70.56,100 122,139 36.4,28.45 75,50 115,69.4l-48 57 58 49 556.5 -670 -58 -47.8 -0 0zm-317.5 286.8c23.9,1.13 44.4,18.2 46.66,40l-37.56 43.25c-2.3,1.13 -5.7,1.13 -8,1.13 -27.3,0 -46.66,-18.2 -46.66,-41 -1.14,-24 20.5,-43.2 45.5,-43.2zm-260.6 149c-9,-9 -17,-19.35 -27.3,-28.45 -5.7,-6.8 -4.55,-10.25 0,-17 50,-58 114,-100 191,-126.3 21.6,-8 44.4,-13.66 67.15,-18.2 -60.3,36.4 -95.6,86.5 -94.46,153.6 0,36.4 10.24,68.3 30.7,95.6l-26.2 30.7c-52.35,-21.6 -99,-50 -141,-90l0 0z"/>
</svg>
