<svg xmlns="http://www.w3.org/2000/svg" viewBox="0 0 1000 1000">
    <path style="fill: gray" d="M496.5 231c157.4,2.3 292,48 404,146 40,34.2 70.7,74.12 98,117.45 1.13,3.42 1.13,9.1 -1.14,11.4 -89,143.7 -223.5,229.2 -401.4,255.44 -175.6,26.23 -334,-13.7 -471,-117.45 -51.3,-37.6 -91,-85.5 -122,-138 -2.3,-3.42 -2.3,-9.1 0,-11.4 88,-144 223.5,-227 400.3,-256.6 11.4,-1.14 22.8,-3.4 34.2,-3.4 20.5,-2.3 41,-2.3 59.3,-3.43l0 0zm100.35 422c107,-20.5 195,-68.4 261,-146 4.55,-6.85 2.3,-10.3 -1.14,-15 -40,-48 -90,-84.4 -149.4,-111 -34.2,-16 -72,-27.37 -114,-35.35 65,37.63 100.35,87.8 100.35,154 -1.14,67 -35.35,116.3 -97,153l0 -0.01zm-194 0c-61.6,-36.5 -96,-85.5 -97,-152.8 0,-66 35.35,-116.3 96,-154 -22.8,5.7 -45.6,11.4 -67.3,18.24 -77.55,26.2 -141,68.4 -192,128 -4.56,5.7 -5.7,10.26 0,16 10.26,9.13 18.24,20.53 27.4,29.65 63.86,60.45 142.55,98 232.63,115zm29.65 -180c25.1,-1.14 45.6,-19.4 45.6,-42.2 0,-22.8 -21.7,-42.2 -46.8,-42.2 -25,0 -46.8,19.4 -45.6,42.2 0,24 20.53,42.2 46.76,42.2z"/>
</svg>
