<svg version="1.1" xmlns="http://www.w3.org/2000/svg" xmlns:xlink="http://www.w3.org/1999/xlink" width="50px" height="50px" viewBox="0 0 50 50">
    <g fill="#3F8A8C" fill-rule="nonzero" stroke="none" stroke-width="1" stroke-linecap="butt" stroke-linejoin="miter" stroke-miterlimit="10" stroke-dasharray="" stroke-dashoffset="0" font-family="none" font-weight="none" font-size="none" text-anchor="none" style="mix-blend-mode: normal">
        <g>
            <path d="M24,2c-12.13672,0 -22,9.86328 -22,22c0,12.13672 9.86328,22 22,22c2.05859,0 4.07031,-0.29687 6,-0.84375v-3.85937c-1.49609,1.44531 -3.19141,2.37109 -5,2.625v-7.92187h5v-2h-5v-9h5v-2h-5v-9h9.37109c0.89453,2.58203 1.46094,5.51953 1.58594,8.66016l1.04297,0.98047l0.98828,0.92188l0.46484,0.4375h5.51172c-0.07812,1.52734 -0.32031,3.02734 -0.73437,4.48047l1.61719,1.51563c0.75391,-2.23828 1.15234,-4.58984 1.15234,-6.99609c0,-12.13672 -9.86328,-22 -22,-22zM23,4.08203v7.91797h-8.55859c0.375,-0.82422 0.77344,-1.60937 1.21484,-2.32031c1.99609,-3.22266 4.57031,-5.20703 7.34375,-5.59766zM25,4.08203c3.50391,0.48438 6.57813,3.48438 8.57813,7.91797h-8.57812zM31.5,5.45313c3.39844,1.375 6.32031,3.66016 8.48828,6.54688h-4.26953c-1.09375,-2.62891 -2.53516,-4.85937 -4.21875,-6.54687zM16.42578,5.49219c-0.90234,0.91016 -1.73828,1.95313 -2.46875,3.13281c-0.64062,1.03516 -1.21094,2.16797 -1.70703,3.375h-4.23047c2.15234,-2.86328 5.04297,-5.13281 8.40625,-6.50781zM6.69141,14h4.82813c-0.87891,2.72656 -1.39844,5.77344 -1.48828,9h-6.00781c0.16406,-3.27344 1.12109,-6.32812 2.66797,-9zM13.63672,14h9.36328v9h-10.96875c0.09766,-3.27344 0.66797,-6.33594 1.60547,-9zM36.45313,14h4.87109c1.54297,2.67188 2.48828,5.73047 2.64844,9h-6.00391c-0.09375,-3.23047 -0.625,-6.27734 -1.51562,-9zM4.02344,25h6.00781c0.08984,3.22656 0.60938,6.27344 1.48828,9h-4.82813c-1.54687,-2.67187 -2.50391,-5.72656 -2.66797,-9zM12.03125,25h10.96875v9h-9.36328c-0.9375,-2.66406 -1.50781,-5.72656 -1.60547,-9zM33.95313,25c-0.53125,0.02734 -0.95312,0.46484 -0.95312,1v19.25c0,0.40625 0.24219,0.76953 0.61719,0.92188c0.375,0.15625 0.80469,0.07031 1.08984,-0.21484l3.01172,-3.01562l2.51172,5.47656c0.23047,0.5 0.82422,0.71875 1.32813,0.48828l3.85938,-1.76562c0.5,-0.23047 0.71875,-0.82422 0.48828,-1.32812l-2.60547,-5.6875h4.69922c0.41016,0 0.78125,-0.25 0.92969,-0.63281c0.15234,-0.38281 0.05469,-0.81641 -0.24609,-1.09766l-14,-13.125c-0.19922,-0.18359 -0.46094,-0.28125 -0.73047,-0.26953zM35,28.30859l10.46875,9.81641h-3.59375c-0.15625,0 -0.30859,0.03516 -0.44922,0.10547l-0.10547,0.05469c-0.48047,0.24219 -0.6875,0.82031 -0.46094,1.30859l2.8125,6.14063l-2.04297,0.9375l-2.69141,-5.87109c-0.13281,-0.29687 -0.41016,-0.50781 -0.73047,-0.56641c-0.32422,-0.05859 -0.65234,0.04688 -0.88281,0.28125l-2.32422,2.32031zM8.01953,36h4.23047c0.49609,1.20703 1.06641,2.33984 1.70703,3.375c0.73047,1.17969 1.56641,2.22266 2.46875,3.13281c-3.36328,-1.375 -6.25391,-3.64453 -8.40625,-6.50781zM14.44141,36h8.55859v7.91797c-2.77344,-0.39062 -5.34766,-2.375 -7.34375,-5.59375c-0.44141,-0.71484 -0.83984,-1.5 -1.21484,-2.32422z"></path>
        </g>
    </g>
</svg>
